<svg width="716" height="380" version="1" xmlns="http://www.w3.org/2000/svg">
  <g id="neutral-right" class="st0">
    <path class="st1"
      d="M483 379c-4-10-8-19-9-39s1-22 0-38-2-13-1-25-6-28-6-34 1-26-1-35c-2-10-6-16-9-32s-15-27-22-25-8 10-7 13l-8-12c-2-3-8-5-8-5s-9-2-12 6c-3 0-3 7-3 8l-3-11-7-5c-3-2-11-1-13 0-2 2-6 6-6 9 0 4 2 7 2 16s3 27 3 32l9 48h-1s-10-53-13-61c1-8 2-32-3-37-3-5-17-9-22 2-5 12-3 33-4 41s0 26 1 31c-1-5-3-10-6-14s-8-6-12-7c-3-1-6 0-8 2l-2 1-1 1c0 1 1 10 6 18-2 2 0 10-1 15-2 5-3 9-1 15-1 1 1 6 3 7-2 4 0 9 4 19 5 12 2 25 6 32l12 17c5 7 22 30 29 35s11 12 11 12h103z"></path>
    <path class="st2"
      d="M483 379c-4-10-8-19-9-39s1-22 0-38-2-13-1-25-6-28-6-34 1-26-1-35l-9-32c-5-17-15-27-22-25s-8 10-7 13l-8-12c-1-2-5-5-9-6-2 0-8 0-11 7-3 1-3 7-3 8l-3-11-7-5c-3-2-11-1-13 0-2 2-6 6-6 9s2 7 2 15l3 33 9 48h-1s-10-53-13-61c1-8 2-32-3-37-3-5-17-9-22 2-5 12-3 33-4 41s0 26 1 31c-1-6-3-11-6-14l-12-7c-3-1-6 0-8 2l-2 1h-1c0 2 1 10 5 17v17c-2 5-3 9-1 15 0 3 1 6 3 7-1 5 0 9 4 18 5 13 2 26 6 33l12 17c5 7 22 30 29 35s11 12 11 12"></path>
    <path class="st2"
      d="M343 310l3-17c0-3-1 2-1-12 0-13-1-34-3-44-3-9-2-11-3-15M416 241c-2-3-4-9-5-24s-5-19-5-30-8-14-9-26M443 237c0-3 1-23-1-34-2-12-4-16-7-21-2-5-7-13-8-18"></path>
    <g class="st3">
      <path class="st4" d="M316 209l3 2 1 2 2 5v7l-1 2h-3l3-1v-2-5l-2-6-3-4z"></path>
    </g>
  </g>
  <g id="equal" class="st0">
    <path class="st1"
      d="M473 379a127 127 0 0 0-38-40l-11-6-42-16c-7-2-11-3-15-7l-4-6c-2-2-2-5-4-9l-3-10c-4-11-7-13-9-19l-1-5-3-4c-3-3-3-6-4-11l-2-9-5-8-6-5-5-6v-3c1-5 6-7 7-8 5-2 10-1 12-1 5 1 9 3 12 6 0 0 7 4 14 13l3 5 1 4 5 6a48 48 0 0 1 9 16l1 1 3 1v-6l-1-9v-6l-3-6-6-12-5-6-11-14-4-5c-5-8-8-15-9-22-2-5-2-14-1-18 2-6 8-7 8-7 5-1 8 1 9 1 1 1 5 3 7 7l2 3 3 8 1 2 3 1 8 6 10 8 7 5-2-8-4-11-4-6h-2l-6-1c-1 0-6-2-9-6l-1-6c0-5 3-7 4-8l1-2v-2l1-7 5-7 6-3 6-3h7l7 4 4 5 3-3 11-7 9-3c2 0 7-1 11 2 1 1 5 4 6 7l10 24 2 11v-12-5l-1-5-2-10-2-5-3-9c0-2-1-5 1-10l5-7 4-2c2-1 5 1 5 1l5 5 3 7 2 4 2 8 1 4 3 6 2 6 1 3 3 7a434 434 0 0 0 3 30l1 10 3 8 1 4 2 8 7 21 18 53 4 8 6 13 4 14 7 15 3 8 4 5a153 153 0 0 1 15 31v7H473z"></path>
    <path class="st5" d="M471 157v-11-5-1"></path>
    <path class="st2"
      d="M504 185l3 7 1 4 2 9 7 20c3 6 8 20 18 53l5 9 5 12 4 14 7 15 3 8 4 5a153 153 0 0 1 15 31v7M473 379a127 127 0 0 0-38-40l-11-6-42-16c-7-2-11-3-15-7l-4-6c-2-2-2-5-4-9l-3-10c-4-11-7-13-9-19l-1-5-3-4c-3-3-3-6-4-11l-2-9-5-8-6-5-5-6v-3c1-5 6-7 7-8 5-2 10-1 12-1 5 1 9 3 12 6 0 0 7 4 14 13l3 5 1 4 5 6a48 48 0 0 1 9 16l1 1 3 1v-6l-1-9v-6l-3-6-6-12-5-6-11-14-4-5c-5-8-8-15-9-22-2-5-2-14-1-18 2-6 8-7 8-7 5-1 8 1 9 1 1 1 5 3 7 7l2 3 3 8 1 2 3 1 8 6 10 8 7 5-2-8-4-11-4-6h-2l-6-1c-1 0-6-2-9-6l-1-6c0-5 3-7 4-8l1-2v-2l1-7 5-7 6-3 6-3h7l7 4 4 5 3-3 11-7 9-3c2 0 7-1 11 2 1 1 5 4 6 7 4 7 8 18 9 23l2 12"></path>
    <path class="st2"
      d="M443 165a196 196 0 0 1-13-20l-7-12-4-5M386 148l5 7 4 8M434 134a329 329 0 0 1 3 22"></path>
    <path class="st5"
      d="M471 140l-1-4-2-10-2-5-3-8c0-2-1-6 1-10 1-4 3-6 5-7l4-3c3-1 5 1 6 1l4 5 3 8 2 4 2 7 1 4 3 6 2 7 1 2 3 7a434 434 0 0 0 3 31l1 10"></path>
    <g class="st3">
      <path class="st4" d="M328 211l7 5 3 4 1 2v3l-2 2-2 3a11 11 0 0 1 3-6v-2l-1-1-2-4-7-6z"></path>
    </g>
    <g class="st3">
      <path class="st4" d="M470 98l1 3 2 2 2 4 4 1h5-3l-2 1-4-1h-1l-4-10z"></path>
    </g>
  </g>
  <g id="dash" class="st0">
    <path class="st1"
      d="M472 380l-11-18-9-12h-1l-11-9a123 123 0 0 0-39-17l-14-5-18-7c-2 0-6-6-7-10l-4-10-7-16-8-17-4-9-1-9-2-9-1-3-7-9-4-7 4-5c5-3 11-2 13-2 5 1 8 3 12 6 5 3 8 7 9 8 3 3 6 6 7 11l1 6 5 7a36 36 0 0 1 5 19s0-8-3-17l-3-7c-8-16-18-29-19-30l-7-12c-1-1-3-4-4-9l-2-6 1-5-1-5v-9-7c1-1 2-6 8-8 4-2 8-1 9 0 5 1 8 5 9 7l3 9v2l5 5 5 7 5 7 6 8 2-1-2-6-7-12-4-6-2-3-3-3-4-4-2-7v-6l-1-6 3-6 3-3 5-2 4-3c4-2 7-1 9-1l8 5 5 5a27 27 0 0 1 4-9l5-3c2-1 5-3 9-3h6l5 4c1 1 3 2 4 5l6 8 12 31-13-35-1-4c0-3-1-4-2-5 0 0-3-4-4-10-2-4-3-7-2-11s4-7 5-8c1-2 2-3 4-3 4-1 7 1 8 2l2 2 4 6 5 10 3 8 6 14 3 6 2 5 3 8c2 4 2 5 2 9l6 14 6 13 6 15 2 6a154 154 0 0 1 13 24l8 19 8 23 8 19a71180 71180 0 0 0 19 44l5 9 7 13 2 7 5 12-105 1z"></path>
    <path class="st2"
      d="M488 175l6 13 6 15 2 6a154 154 0 0 1 14 24l7 19 8 23 8 19a71180 71180 0 0 0 19 44l5 9 7 13 2 7 5 13"></path>
    <path class="st5"
      d="M447 139l-4-11-1-3-1-2s-3-4-4-10c-2-3-3-7-2-11s4-7 5-8l4-3c4-1 7 1 8 2l2 3c3 2 4 4 4 5l5 10 3 8 6 14 4 6 1 6 3 8 3 8c1 6 3 10 5 14"></path>
    <path class="st2"
      d="M472 380l-11-18-9-12h-1l-11-9a123 123 0 0 0-39-17l-14-5-18-7c-2 0-6-6-7-10l-4-10-7-16-7-16-5-11-1-8-2-9-1-3-7-9-4-7 4-5c5-3 11-2 13-2 5 1 8 3 12 6 5 3 8 7 9 8a27 27 0 0 1 8 17l5 7c4 6 5 11 5 13v7s0-9-3-18l-3-6c-7-16-18-30-19-31l-7-12c-1 0-3-4-4-9l-2-6 1-5-1-5v-9-7c1-1 3-6 8-8 4-2 8-1 9 0 5 2 8 5 9 7l3 9v3l5 5 5 7 5 6 7 9 1-2-2-6-7-12-4-6-2-3-3-3-4-4-1-7-1-6-1-5 3-7 3-2 5-3 4-3 9-1 8 5 5 5a27 27 0 0 1 4-9l5-3c2-1 5-3 9-3l6 1c2 0 4 2 5 3l4 5 6 8 12 31"></path>
    <path class="st2" d="M428 171l-15-24-7-13"></path>
    <g class="st3">
      <path class="st4"
        d="M441 98l2 3 2 3 1 1h7l1-1 1-1v-1l-2-4-1-2 4 5v2l-1 2-2 1h-1-5l-1-1h-1l-1-1-3-6z"></path>
    </g>
    <g class="st3">
      <path class="st4" d="M330 211l6 7 1 2a7 7 0 0 1 0 7v-4l-2-4-5-8z"></path>
    </g>
  </g>
  <g id="0" class="st0">
    <path class="st1"
      d="M482 380l-9-20-8-12c-3-5-5-8-9-11-5-5-11-7-15-9l-14-4-21-7-12-4c-4 0-6 0-11-2l-7-2c-4-2-6-5-7-7-3-2-4-5-5-8l-3-6c-1-3-2-9-6-14l-5-8-1-4-5-8-4-12-3-15-3-4-7-9-2-4 4-4 7-3 8 1a39 39 0 0 1 22 16c1 2 4 6 5 11v3l4 4c3 3 4 6 5 9l-8-16c-1-5-4-10-8-17l-6-7-6-9-6-7-4-9-2-10 1-4 2-3a53 53 0 0 1 2-12c2-4 7-6 8-6h7c4 1 6 3 7 4 3 2 4 5 4 6v4l3 3 4 5 3 4 6 8 3 5 1-1-4-8-6-9-1-3-4-3c-5-4-7-9-9-15-2-4-2-7-2-9v-7c1-3 3-5 5-6l3-3c4-2 7-4 10-4l8 1c4 2 7 5 8 7a78 78 0 0 1 4-8c2-3 5-5 8-5l-2-6v-8c0-2 1-5 4-7h8l5 4c8 6 10 7 12 11l2 3 6 8 6 7 5 5 3 4 3 5 4 6 5 8 12 15a93 93 0 0 1 13 21l4 9 5 5 7 13 7 14 6 15 9 21 6 11 3 9 5 11 7 14 6 14 3 5 9 14 3 7 4 7 12 22H482z"></path>
    <path class="st5"
      d="M411 112l-2-5v-8c0-2 1-5 4-7h8l5 4c8 6 10 7 12 11l2 3 6 8 6 7 5 5 3 4 3 5 4 6 5 8 2 2"></path>
    <path class="st2" d="M424 162l-9-12-9-14-7-11M449 150l-8-18-5-10-7-8-5-3c-4-1-11 1-13 2"></path>
    <path class="st2"
      d="M482 380l-9-20-8-12c-3-5-5-8-9-11-5-5-11-7-15-9l-14-4-21-7-12-4c-4 0-6 0-11-2l-7-2c-4-2-6-5-7-7-3-2-4-5-5-8l-3-6c-1-3-2-9-6-14l-5-8-1-4-5-8-4-12-3-15-3-4-7-9-2-4 4-4 7-3 8 1a39 39 0 0 1 22 16c1 2 4 6 5 11v3l4 4c3 3 4 6 5 9l-8-16c-1-5-4-10-8-17l-6-7-6-9-6-7-4-9-2-10 1-4 2-3a53 53 0 0 1 2-12c2-4 7-6 8-6h7c4 1 6 3 7 4 3 2 4 5 4 6v4l3 3 4 5 3 4 6 8 3 5 1-1-4-8-6-9-1-3-4-3c-5-4-7-9-9-15-2-4-2-7-2-9v-7c1-3 3-5 5-6l3-3c4-2 7-4 10-4l8 1c4 2 7 5 8 7a78 78 0 0 1 4-8c2-3 5-5 8-5M474 156l10 12a93 93 0 0 1 14 21l4 9 4 5 8 13 6 14 6 16 9 20 6 12 4 8 5 11 7 14 6 14c0 2 0 1 3 5l8 14 3 7 4 7 13 22"></path>
    <g class="st3">
      <path class="st4"
        d="M411 99l3 3 1 1 1 1 1 1h2l3-1 3-2 1-1v-1l-1-1-1-1-2-3 3 2 1 1 1 2v1s1 0 0 0v1l-1 1-3 2-4 1-2-1-1-1-1-1-2-1-2-3z"></path>
    </g>
    <g class="st3">
      <path class="st4" d="M331 209l3 3a28 28 0 0 1 5 6 10 10 0 0 1-1 7 15 15 0 0 0 0-7l-2-2-5-7z"></path>
    </g>
  </g>
  <g id="9" class="st0">
    <path class="st1"
      d="M433 380a327 327 0 0 0-20-33 61 61 0 0 0-15-13l-19-11-8-4-11-7-8-4-8-4-7-5c-2-2-3-5-3-7-2-3-2-6-2-7 0-5-3-10-5-19v-2l-4-8-2-6v-5l-2-5-1-9 2-20-1-6-5-14 4-2c2-1 4-3 8-2l7 2-1-5-1-5c0-3 0-7 2-11 0-2 2-4 6-6l1-6c1-1 2-4 5-6l6-3 8 1 2 1c0-2 0-5 2-7l3-3 7-5 9-3 9 2 5 5-13-25-2-7-1-6 2-4 1-3c0-2 1-2 2-3l4-1 7 1 4 3 4 4 3 5 3 4 2 4a89 89 0 0 0 8 13l9 15a564 564 0 0 1-7-32c-1-4-2-6-1-9 0-2 0-6 3-8l5-3h7l6 6 3 6 4 10 2 6 3 13 1 5 6 21 1 6 3 19 1 4 2 4a219 219 0 0 1 10 32l2 6 2 5 3 10 5 17 3 17 1 7 4 13 6 19 3 8a400 400 0 0 0 18 40l4 9 5 11H433z"></path>
    <path class="st2"
      d="M429 138a564 564 0 0 1-7-32c-1-4-2-7-1-9 0-2 0-6 3-9l5-2c1-1 4-2 7 0 2 0 4 2 6 5l4 7 3 10 2 6 3 13 1 5 6 21 1 6c2 6 2 10 3 19l1 4 2 4a219 219 0 0 1 10 32l2 6 2 5 3 10 5 16 3 18 1 7 4 13 6 19 3 8a400 400 0 0 0 18 40l4 9 5 11M381 205l-8-21-7-17c0-1-4-10-5-18M353 251l-3-13-2-12-2-7-4-8-3-8-4-10-3-5"></path>
    <path class="st5"
      d="M444 182l-4-14-3-8-3-11c-3-8-12-23-14-26l-4-5-4-8-5-8-3-5-4-4-4-3-7-1c-2 0-6 2-7 6l-2 5 1 6 2 7 11 22"></path>
    <path class="st2"
      d="M412 181a186 186 0 0 0-13-36c-1-3-3-9-8-12l-9-2-9 3-7 5-3 3c-2 2-2 5-2 7l-2-1-8-1-6 3c-3 2-4 5-4 6-2 2-2 4-2 6-4 2-5 5-6 6-2 4-2 8-2 11l1 5 1 5-7-2c-4-1-6 1-8 2l-4 2 5 14 1 6-2 20 1 9 2 5v5l2 6 4 8v2c3 9 5 14 5 19 0 1 0 4 2 7 1 2 1 5 4 7l6 5 8 4 8 4 11 7 8 4 19 11 5 4c3 2 6 4 10 9l11 17 9 16"></path>
    <g class="st3">
      <path class="st4" d="M319 191l1 1a30 30 0 0 1 4 8v5l-2 4 1-4v-5l-2-4-1-4-1-1z"></path>
    </g>
    <g class="st3">
      <path class="st4"
        d="M384 98l3 4 2 2h2l5-2 5-1v-1-1l-2-2-3-4 2 2 2 2 1 2 1 1v2h-1l-5 1-5 2h-1l-2-1-1-2-3-4z"></path>
    </g>
  </g>
  <g id="8" class="st0">
    <path class="st1"
      d="M529 369l-5-8-6-10c-2-3-5-9-7-18l-2-10-2-5-3-8-2-5-2-8-2-13-2-13-1-7-2-9-2-6v-4l-1-16a389 389 0 0 0-3-29l1-8 1-7c-1-7 1-19-5-25l-3-3c-1-2-8-9-11-10l-8-3h-4l-13-2-1-4-5-7c-3-3-6-4-7-4-5-1-9 0-12 1l-6 3-5 5-4 5-2 1-4 3-6-11-12-16-2-4-2-6-4-8a30 30 0 0 0-7-9c-4-2-9-1-10 0-3 1-4 3-6 5l-3 10c-1 5 0 8 1 13l5 15 2 6c-3 0-9 0-15 4-3 1-7 4-9 9-2 4-1 9 0 15 2 7 4 14 7 19a61 61 0 0 1 4 14h-4l-3 2-1 5 1 8v5l-2 6-2 5-3 10 1 10 2 13 2 9 1 8c0 8 0 13 2 17l3 4 9 9 14 13 18 16 11 10 7 7a244 244 0 0 1 17 21l119-1-5-9zm-73-188l-2 6-2-8-2-13 3 1 3 2v12z"></path>
    <path class="st2"
      d="M399 145a26 26 0 0 1 6-3l4-5 5-6 6-3c3-1 7-2 12-1l7 4 5 8c1 1 0 4 2 4 5-1 8 1 12 1l4 1c2 0 5 0 9 2l10 10 3 3c7 6 5 18 5 26l-1 6-1 8v6l1 4a377 377 0 0 1 3 40l2 5a126 126 0 0 0 4 16l1 13a108 108 0 0 0 5 22l1 4 4 8 1 5 2 11c2 8 6 15 7 17l7 11a155 155 0 0 1 9 17"></path>
    <path class="st2" d="M450 166l3 1 2 2 1 3v9l-2 6-2-8-2-13zM445 143l2 8 2 9 1 7M412 156v12"></path>
    <path class="st5"
      d="M431 185l-7-4-10-8a57 57 0 0 1-6-11l-5-9-4-8-6-11-12-16-2-3-2-7-3-8-5-6-3-3c-4-2-9 0-9 0-4 1-5 4-7 6-2 3-3 7-3 10l1 12 5 15 2 6"></path>
    <path class="st2" d="M347 253l1-13-1-17-2-10-3-12"></path>
    <path class="st2"
      d="M415 379a170 170 0 0 0-17-21l-7-7-11-9-18-17-14-12-9-9-3-5c-2-3-2-9-2-16l-1-9-2-8-2-13-1-11 3-9 2-5 2-6v-5l-1-8 1-5 3-2 4-1-1-5-3-8c-3-5-5-12-7-19-1-7-1-12 1-16 2-6 5-7 8-9 6-3 13-4 16-3l5 1 7 8 5 12 4 16 5 14"></path>
    <g class="st3">
      <path class="st4" d="M337 220l2-3 1-3v-7 11l-3 2z"></path>
    </g>
    <g class="st3">
      <path class="st4"
        d="M352 100l3 3h4v-1h1l5-1h4v-1-2l-1-2-2-2 2 2 1 1 1 2v1l-1 2h-5l-4 1h-4-1l-2-2-1-1z"></path>
    </g>
  </g>
  <g id="7" class="st0">
    <path class="st1"
      d="M364 380l-7-12-7-12-8-13-6-6-8-7-4-9-5-11-11-24-4-8-1-2-1-3v-12l1-15-1-5-1-19v-4l2-5 3-4 6-6 2-3 3-2 1-4 2-3 1-1-3-12-2-19-1-15v-17l1-14 3-8 6-6h9l4 3 3 5 2 6 1 5v19l2 7 4 9 2 7c1 3 3 8 3 14l2 7v3h4l2-4 1-5a160 160 0 0 0 2-38l2-6c1-1 3-6 8-9 6-3 12-2 14-1a22 22 0 0 1 14 11l1 2v13a36 36 0 0 1 10-7l5-1 10 2 5 4 3 4 2-3 6-3 5 2c3 2 4 5 5 8l1 1 2 3 3 4 3 12 1 8a24 24 0 0 1 1 10 107 107 0 0 1-7 25l-1 6-1 8-2 15-3 11v6l-1 12v10l-3 15a96 96 0 0 0 1 29 621 621 0 0 0 22 52H364z"></path>
    <g class="st3">
      <path class="st4"
        d="M321 106l1 4v2h1l3 1h3l4-1 2-1 1-1 1-1v-4 6l-1 1-3 1-4 1h-3l-3-1-1-1v-1l-1-1v-4z"></path>
    </g>
    <path class="st2"
      d="M364 380l-7-12-7-12-8-13-6-6-8-7-4-9-5-11-11-24-4-8-1-2-1-3v-12l1-15-1-5-1-19v-4l2-5 3-4 6-6 2-3 3-2 1-4 2-3 1-1M359 184l2-1 2-3 1-5a160 160 0 0 0 2-38l2-6c1-2 3-6 8-9 6-3 12-2 14-2a22 22 0 0 1 14 12l1 2v12a36 36 0 0 1 10-6l5-1c2 0 6 0 10 2l5 4 3 4 2-3c1-1 3-3 6-3l5 2c3 2 4 5 5 7l1 2 2 3 3 4 3 12 1 8a24 24 0 0 1 1 10 107 107 0 0 1-7 25l-1 6-1 8-2 15-3 11v5l-1 12v11l-3 15a96 96 0 0 0 1 29 621 621 0 0 0 22 52"></path>
    <path class="st2" d="M317 249l3-8c1-2 2-4 2-10l1-12v-12"></path>
    <path class="st5"
      d="M323 207v-5l-2-12-3-12-2-19-1-16v-16l1-14 3-8c2-3 3-5 6-6h9l4 3 3 5 2 5 1 6v19l2 6 4 10 2 7c1 3 3 8 3 13l2 8v3l2-1"></path>
    <path class="st2" d="M404 188c-3-4-2-10-2-13l3-28M433 201l6-37v-9l-1-6"></path>
    <path class="st2" d="M439 168v10l-4 10"></path>
  </g>
  <g id="y" class="st0">
    <path class="st1"
      d="M365 380l-5-8-11-11-10-13-10-16-14-24c-1-1-3-2-4-5l-2-9v-12l-2-16-3-15v-2l-1-4v-3-2c-1-2 0-3 1-5l13-19-4-11-6-21-3-17-2-13c-2-9-2-13-1-15 0-6 1-9 2-10 1-2 2-6 6-7 2-2 5-1 6-1 5 1 8 4 10 6 3 3 4 7 5 9l1 6 1 6 4 13 3 7c5 8 5 7 6 11l7 15 3 7 3 6h5l1-3 1-3v-11-16l-1-13-1-5 3-6c3-5 9-7 11-7 0 0 11-4 21 2l3 2c5-1 11 1 17 4l11 5c1 0 6 1 10 5-1-1 0-4 1-6l1-4c2-4 4-6 6-7l2-2 5-2 4 3c3 2 3 5 4 6l1 3 2 4c3 4 4 8 4 9l2 12 1 9 2 9v7l-2 12-2 10-3 10a274 274 0 0 0-1 26c-1 11-3 12-3 20l1 9v15l-1 20v10l4 19 3 13 7 14H365z"></path>
    <g class="st3">
      <path class="st4"
        d="M305 131l1 3 1 1h1a62 62 0 0 0 12-3l1-1 1-1-1-3 1 3v2l-1 1-7 2-6 1h-1l-1-1-1-1v-3z"></path>
    </g>
    <path class="st2"
      d="M365 380l-5-8-11-11-10-13-10-16-14-24c-1-1-3-2-4-5l-2-9v-12l-2-16-3-15v-2l-1-4v-3-2c-1-2 0-3 1-5l13-19M361 207h2l1-3 1-4v-10-16l-1-14v-5l2-5c4-5 10-7 11-7 16-5 24 4 24 4 5-1 10 0 17 4l11 4 1 1 10 5v-6l1-4c2-4 4-6 6-7 1-1 1-2 3-2l4-2 2 1c4 2 6 6 6 8l1 3 2 4c3 4 4 8 4 10l2 11 1 9 2 9v7l-2 12-2 10-3 10a274 274 0 0 0-1 26l-2 20v24l-1 20 1 10c0 7 2 13 3 19l3 13 7 14"></path>
    <path class="st2"
      d="M444 172l-1 4-1 13-2 17 3-14 1-2a48 48 0 0 1 1-14l-6-16M411 213a33 33 0 0 0-4-9l-1-16v-25a20 20 0 0 0-4-16M323 289l1-6 5-12v-5l-1-11-2-9 1-9-1-5"></path>
    <path class="st5"
      d="M326 232l-3-7-10-20-6-21-3-17-2-13c-2-9-2-13-1-15 0-6 1-9 2-10 1-2 2-6 6-7 2-2 5-1 6-1 5 1 8 4 10 6 3 3 4 7 5 9l1 6 1 6 4 13 3 7c5 8 5 7 6 11l7 15 3 7 3 6h3"></path>
  </g>
  <g id="u" class="st0">
    <path class="st1"
      d="M373 380l-8-11-11-13-10-15-11-17-8-13-7-11-1-10-2-15v-4l-2-5-3-10v-5l-1-4a20 20 0 0 1 0-10l5-9 7-11 1-4 2-10 2-7 5-4v-9l-2-22-1-17v-9c1-2 1-7 5-11 2-2 4-4 8-5a12 12 0 0 1 11 5s3 3 4 7l2 8 1 12 1 5c0 4 1 6 3 10l4 10 5 17 4 18h2l1-4v-16-2l-1-4-1-9-1-3-1-3a17 17 0 0 1-4-9c-1-6 3-10 4-11l2-3c3-3 7-3 8-3l6 2h7l9 2h7c4 1 7 3 8 5l7 3a39 39 0 0 1 12 6l3 1v-6-4c1-4 3-6 4-7l3-2 1-1c2-2 5-1 6-1 3 1 5 3 5 4l2 4a74 74 0 0 0 7 14l3 15c2 9 5 20 5 28l-4 22-1 11-1 8c1 6 0 12-1 23l-2 21v9l-2 22v15l1 16c2 6 4 16 11 26H373z"></path>
    <g class="st3">
      <path class="st4" d="M324 217l3-2 2-3 2-7v4l-1 4-3 2-3 2z"></path>
    </g>
    <path class="st2"
      d="M373 380l-8-11-11-13-10-15-11-17-8-13-7-11-1-10-2-15v-4l-2-5-3-10v-5l-1-4a20 20 0 0 1 0-10l5-9 7-11 1-4 2-10 2-7 5-4M377 211l1-1 1-4v-16-2l-1-3-1-10-1-2-1-4a17 17 0 0 1-4-8c-1-6 3-11 4-12l2-2c3-3 7-3 8-3l7 1 6 1 10 1h6c4 1 7 4 8 5l7 4a39 39 0 0 1 12 5l3 1v-5-4c1-4 3-6 4-7l3-2 1-2h6c3 0 5 3 5 4l2 4a74 74 0 0 0 7 14l4 15c1 9 4 19 4 28l-4 22-1 10v8l-2 24-2 21v8l-2 22v16a80 80 0 0 0 12 42"></path>
    <path class="st2" d="M336 278c2-3 4-7 5-13v-10l-1-16-1-14"></path>
    <path class="st5"
      d="M340 225l-4-13-5-20v-9l-2-22-1-18v-8c1-2 1-7 5-11 2-2 4-4 8-5a12 12 0 0 1 11 5s3 3 4 7l2 8 1 12v5l4 10 4 10 5 17 4 18h1"></path>
    <path class="st2"
      d="M407 147l6 3 4 5 3 9v45l1 3c1 3 2 5 4 6M453 230l-2-2v-5l3-31v-12l-1-9-4-6-5-3"></path>
    <g class="st3">
      <path class="st4"
        d="M334 127l1 5 2 1h13l1-2v-1-2-2 6l-1 2a88 88 0 0 1-10 0h-3l-1-1-1-1-1-2v-3z"></path>
    </g>
  </g>
  <g id="i" class="st0">
    <path class="st1"
      d="M380 380c-1-3-2-7-5-10l-7-7-10-10-11-11-13-13-9-10-7-6-4-5c-3-3-3-6-4-8l-1-8-1-10-4-15-2-6-1-5-2-3v-5l-1-2v-4-5l2-12v-5l-3-9-2-7v-4l1-1 1-1 3-1 6-1 9 4c5 4 7 8 9 11l4 9 2 9 1 6-1 5 2 2 3 7 2 6 1 4v-10a265 265 0 0 0-3-35l-3-16v-4l1-6 4-12 1-5 1-3 3-6 2-3 5-5c3-2 7-1 8-1l4 1-1-11 1-11 2-8 6-6 7-1c4 1 7 4 8 5 3 3 4 6 4 7l1 5a76 76 0 0 1 2 14l2 7 3 10 3 12 2 6 2 14 2 10 1 4a236 236 0 0 0 0-21c0-5 0-10-3-15l-3-8-2-7 1-5c1-1 1-5 7-7 4-1 12-1 21 13l1 2 1 2a302 302 0 0 1 9 15l1 6 1 10v15l-1 10 2-29v-11l-1-4-2-5c-3-5-4-9-4-13s1-6 2-7v-1l1-2 4-3 7 2 6 5 5 6 4 7 2 9 4 12 2 11v13c-2 17-3 17-2 24l1 12v10l-1 11-1 6v22l-2 11c-6 36 14 65 17 73H380z"></path>
    <g class="st3">
      <path class="st4" d="M365 127l2 2 1 1h12l3-1 1-2-1 2-1 1-2 1h-12l-1-1-1-1-1-2z"></path>
    </g>
    <path class="st2"
      d="M380 380c-1-3-2-7-5-10l-7-7-10-10-11-11-13-13-9-10-7-6-4-5c-3-3-3-6-4-8l-1-8-1-10-4-15-2-6-1-5-2-3v-5l-1-2v-4-5l2-12v-5l-3-9-2-7v-4l1-1 1-1 3-1 6-1 9 4c5 4 7 8 9 11l4 9 2 9 1 6-1 5 2 2 3 7 2 6 1 4v-10a265 265 0 0 0-3-35l-3-16v-4l1-6 4-12 1-5 1-3 3-6 2-3 5-5c3-2 7-1 8-1l4 1M406 210a236 236 0 0 0 1-21c-1-4-1-9-4-15l-3-7-2-7 1-5c1-1 1-5 7-7 4-2 12-1 21 13l1 2 2 2a302 302 0 0 1 8 15l2 6v35l2-29v-10l-2-5-2-5c-3-5-4-9-4-13s2-7 2-7l1-1 1-2 3-3 7 2 6 5 5 6 4 7 3 9 3 12 3 11-1 13-2 24 1 11 1 11-1 11-1 6v9l-1 13-2 10c-5 37 14 66 17 74"></path>
    <path class="st5"
      d="M412 226c-4-5-6-16-6-16l-1-4-1-9-3-14-2-7-3-12-3-9-2-7a74 74 0 0 0-3-19l-3-7c-1-1-4-4-9-5l-7 1c-3 2-4 4-5 6l-3 8-1 11 1 11h1l1 11c0 9 9 50 9 60l2 12"></path>
    <g class="st3">
      <path class="st4"
        d="M302 219l2-2v-1-1a107 107 0 0 0-1-11l-1-1v-1l-1-1-2-1 3 1 1 1v1a37 37 0 0 1 2 12v2l-1 1-1 1h-1z"></path>
    </g>
  </g>
  <g id="o" class="st0">
    <path class="st1"
      d="M433 204a105 105 0 0 0-3-31l-3-11 1-9c1-3 3-5 5-6v-2c3-2 7-2 11 0l2 2c5 5 6 11 7 15l3 11 3 21 3 18a152 152 0 0 1 0 24l1 6 5 32 4 28a364 364 0 0 1 2 41l4 13 12 25H381l-9-9c-6-6-16-9-29-20a156 156 0 0 0-16-14l-7-5c-4-4-5-9-6-11l-1-10-1-6s0-4-3-10c-1-4-4-11-4-17-1-1-5-7-3-16l4-21-5-21 2-1h1l5-1c5-1 9 1 10 2l5 4 8 14 4 13-2 12 2 2c2 2 2 5 2 6l-2-35-3-26a104 104 0 0 1 3-26v-5l3-15c2-4 3-8 6-11 2-4 4-5 5-5 4-2 7-1 9 0 5 1 7 5 8 6l4-6 3-4c2-3 4-3 6-4 4-1 8 0 10 1v-7l2-6 2-4c3-3 6-3 7-4 6 0 9 3 10 4l5 8c3 5 3 10 4 13l1 7 3 12 5 17 4 22"></path>
    <g class="st3">
      <path class="st4"
        d="M394 130a110 110 0 0 1 5 8h5l4-1 3-1v-2-2-4a48 48 0 0 1 1 6v2l-2 1-2 1-3 1h-6l-2-2-3-7z"></path>
    </g>
    <path class="st2"
      d="M381 381l-9-9c-6-6-16-9-29-20a156 156 0 0 0-16-14l-7-5c-4-4-5-9-6-11l-1-10-1-6s0-4-3-10c-1-4-4-11-4-17-1-1-5-8-3-16l4-21-5-21 2-1h1l5-1c5-1 9 1 10 2l5 4c1 2 5 6 8 14l4 13-2 12 2 2c2 2 2 5 2 6l-2-35-3-26a104 104 0 0 1 3-26v-5l3-15c2-4 3-8 6-11 2-4 4-5 5-5 4-2 7-1 9 0 5 1 7 5 8 6l4-6 3-5 6-3c4-1 8 0 10 1M433 204a105 105 0 0 0-3-31l-3-11 1-9c1-3 3-5 5-6v-2c3-2 7-2 11 0l2 2c5 5 6 11 7 15l3 11 3 21 3 18a152 152 0 0 1 0 24l1 6 5 32 4 28a364 364 0 0 1 2 41l4 13 12 25"></path>
    <path class="st2" d="M371 251v-13l-1-14-3-18c-2-8-2-13-2-17l1-16 1-18"></path>
    <path class="st5"
      d="M438 241a87 87 0 0 1-3-8l-1-6a1226 1226 0 0 0-6-45l-4-17-3-12a66 66 0 0 0-5-20l-5-8c-1-1-4-4-10-4-1 0-5 1-7 4l-2 4a17 17 0 0 0-2 13l1 1 4 14 1 10 5 28 2 17 2 19"></path>
    <g class="st3">
      <path class="st4" d="M309 241l1-4-1-2v-2l-1-8-3-3 4 3 1 8v4l-1 4z"></path>
    </g>
  </g>
  <g id="p" class="st0">
    <path class="st1"
      d="M426 380l-21-20-1-1-37-17a1531 1531 0 0 0-29-12c-3-2-4-4-6-8l-4-10-15-30-3-4-2-8v-23c-1-1-6-11-8-22l1-1c2-1 5-3 9-3a16 16 0 0 1 13 5l7 7c4 5 6 10 6 11l3 9v7l4 3 3 6a742 742 0 0 1 7 10l3 3-2-10-5-27-3-14-6-19-3-12v-8a134 134 0 0 1 3-13v-6l1-8c1-4 2-8 6-12a12 12 0 0 1 11-4l5 2 5 4 2-3 1-3c2-5 9-6 10-7 1 0 7 0 10 3l4 1c1-7 13-8 19-8l6 3-1-7v-5c0-2 2-4 3-5l2-3c2-2 6-3 9-1l3 2a23 23 0 0 1 7 8l4 9 8 22 6 24 2 4 2 11 1 8 2 6 5 10 2 6 1 7 5 14 3 10 4 16 4 15 3 16 3 11 5 16a275 275 0 0 0 22 38l4 7H426z"></path>
    <g class="st3">
      <path class="st4"
        d="M424 125a25 25 0 0 0 2 6l2 2 3 1h2l3-2 1-1v-1-3l1 3v2l-1 1-3 2h-1-1-1l-4-1-1-1-1-2-1-6z"></path>
    </g>
    <path class="st5"
      d="M420 140l-1-6v-4l2-6 2-3c3-2 7-3 10-1l3 3a23 23 0 0 1 6 7l5 9 8 22 6 24 1 4 3 11 1 7"></path>
    <path class="st2"
      d="M426 380l-21-20-1-1-37-17a1531 1531 0 0 0-29-12c-3-2-4-4-6-8l-4-10-15-30-3-4-2-8v-23c-1-1-6-11-8-22l1-1c2-1 5-3 9-3a16 16 0 0 1 13 5l7 7c4 5 6 10 6 11l3 9v7l4 3 3 6a742 742 0 0 1 7 10l3 3-2-10-5-27-3-14-6-19-3-12v-8a134 134 0 0 1 3-13v-6l1-8c1-4 2-8 6-12a12 12 0 0 1 11-4l5 2 5 4 2-3 1-3c2-5 9-6 10-7 1 0 7 0 10 3l4 1c1-7 13-8 19-8l6 3M466 208l2 6 4 11 3 6 1 6 4 14 4 10 4 16 4 16 3 16 3 10c2 9 3 13 5 16 2 7 5 11 10 21l11 17 5 7M448 214l-3-6-1-6-2-18c0-8-2-13-3-15-1-6-3-10-8-15l-3-5-8-8"></path>
    <path class="st2"
      d="M416 210l-5-15-3-16-3-11-4-5-2-5-5-12v1l6 15 5 12 2 8 3 11 6 17zM382 229l-3-14-5-15-4-12-1-6c-2-5-3-10-2-16l1-12"></path>
    <g class="st3">
      <path class="st4" d="M310 244l1-4v-3l-1-2-2-5-1-2-2-1 2 1h1l1 2 2 4 1 3v3l-2 4z"></path>
    </g>
  </g>
  <g id="open-bracket" class="st0">
    <path class="st1"
      d="M422 379c-2-2-6-9-20-19-5-5-8-6-11-7l-10-5-30-13-10-5c-5-3-7-6-8-7l-3-6-4-10-2-7-5-9-5-12-2-4-3-7v-7-19-1l-3-5c-2-5-4-10-4-14l4-3c4-2 8-2 10-1 1 0 3 0 6 3 2 1 7 5 12 13 3 4 4 7 5 12l2 7-1 4v1l2 2 4 6 4 6 2 5 2 1 2 2v-8l-2-9-1-9-4-21-5-17-5-17c-1-7 1-15 1-17l1-2 1-11 3-10 3-4 1-3c2-3 5-4 6-4 0 0 5-2 10 1l2 2 2 1 1 2 2-3 1-1 3-5c5-5 12-3 12-3 3 0 5 2 6 3h2l1 1 1-3 4-3c3-2 10-2 16 0 7 3 11 7 13 9l5 6a24 24 0 0 1 6 11l5 14 2 24 2-3 1-5 3-20-1-23-1-6-2-10v-5l2-6c1-1 3-5 7-6h6c1 1 3 1 4 4l4 8 4 12 1 20 3 12v23l-1 10v12l1 11c1 4 2 9 1 16l2 6 4 15 1 14 1 5 3 18 3 11 4 15 9 20 12 21 4 7-104-1z"></path>
    <path class="st2"
      d="M384 227l-2-12-5-15-5-20-2-8-1-8 1-10M416 204l-3-21-4-11c-1-5-1-3-4-9-2-5-5-8-6-8l-2-9h-1l3 9 8 15 2 8 4 12 3 14z"></path>
    <g class="st3">
      <path class="st4"
        d="M311 240l1-3v-2a28 28 0 0 0-2-8l-1-2c-1-2-2-3-4-3l2 1 3 1 2 5 1 6v2l-2 3z"></path>
    </g>
    <path class="st2"
      d="M422 379c-2-2-6-9-20-19-5-5-8-6-11-7l-10-5-30-13-10-5c-5-3-7-6-8-7l-3-6-4-10-2-7-5-9-5-12-2-4-3-7v-7-19-1l-3-5c-2-5-4-10-4-14l4-3c4-2 8-2 10-1 1 0 3 0 6 3 2 1 7 5 12 13 3 4 4 7 5 12l2 7-1 4v1l2 2 4 6 4 6 2 5 2 1 2 2v-8l-2-9-1-9-4-21-5-17-5-17c-1-7 1-15 1-17l1-2 1-11 3-10 3-4 1-3c2-3 5-4 6-4 0 0 5-2 10 1l2 2 2 1 1 2 2-3 1-1 3-5c5-5 12-3 12-3 3 0 5 2 6 3h2l1 1 1-3 4-3c3-2 10-2 16 0 7 3 11 7 13 9l5 6a24 24 0 0 1 6 11l5 14 2 24M480 220v1l2 11 1 16 2 6 3 15 2 13 1 6 3 18 2 11 5 15 8 20 12 21 5 6"></path>
    <path class="st5"
      d="M450 203l2-7 2-21v-22l-2-6-1-10v-5c0-1 0-4 2-6 0-2 2-5 7-7l6 1 4 4 4 8 3 12 2 20 2 12v23l-1 10v11"></path>
    <g class="st3">
      <path class="st4"
        d="M457 124l2 5v1l1 1 2 1 5 1h2l2-1v-1 1h1v1h-1l-2 1h-2l-6-1-2-2-1-1v-1l-1-5z"></path>
    </g>
  </g>
  <g id="close-bracket" class="st0">
    <path class="st1"
      d="M525 380H420M420 380l-7-8a238 238 0 0 0-48-29l-20-11c-4-2-8-4-11-8l-5-11-6-19-7-13-1-4-2-3v-3l-2-2-1-6v-22l-4-7-5-10v-1l2-1 3-2c3-2 6-1 7-1 4 0 7 1 9 3 1 0 5 3 9 9 4 5 7 8 8 15l1 9v1l5 6 4 10a8 8 0 0 1 3 6c1 0 2 0 3 2 2 1 2 3 2 3l3-6 1-12-5-19-3-11c-2-8-4-15-8-22l-5-13v-13l2-8v-6l1-7 1-4 3-8 6-6h8l2 1 1 1 1 1c3 1 5 5 5 7l1 3a28 28 0 0 1-2 13l1 4 1 5a507 507 0 0 1 15 35h6a200 200 0 0 0-9-42l-2-8-1-5-2-4-1-5v-7l2-2 1-3 4-3 4-1c1 0 5 0 7 2l2 1 1 2 2 1 2 3 5 3 6 6 4 9 5 19 3 17h1l1-4 1-4-1-14-2-11a65 65 0 0 1-7-15l-6-6-4-7c0-2-1-5 1-9 0 0 2-3 5-4l6 1 6 2 4 2c5 3 8 6 10 9 3 2 6 7 9 13l7 16 2 26-1 8 3-5 7-22 1-4 4-16v-7l1-10c0-2 1-7 4-12 2-2 5-6 9-6 1 0 5-1 8 2 2 1 2 3 3 7 2 10 1 18 1 18-1 5-2 5-2 11l-1 11a160 160 0 0 1-9 51l-1 4v27a88 88 0 0 1 3 13l4 19 3 19v9l2 11 3 9c1 4 2 7 9 20l10 18 6 9"></path>
    <path class="st2"
      d="M486 222l-1 3v28a88 88 0 0 1 3 12l4 20 3 19v9l2 10 3 10c1 3 2 7 9 20l10 18 6 9"></path>
    <path class="st5"
      d="M457 204l3-5 7-22 1-5 4-16v-6l1-10c0-3 1-8 4-12 2-2 5-6 9-7 1 0 5 0 8 2l3 7c2 10 1 18 0 19l-2 10v12a160 160 0 0 1-9 51"></path>
    <path class="st2"
      d="M420 380l-7-8a238 238 0 0 0-48-29l-20-11c-4-2-8-4-11-8l-5-11-6-19-7-13-1-4-2-3v-3l-2-2-1-6v-22l-4-7-5-10v-1l2-1 3-2c3-2 6-2 7-2 4 1 7 2 9 4 1 0 5 3 10 9 3 4 6 8 8 15v10l5 6 4 10a8 8 0 0 1 3 5l3 3c2 1 2 3 2 3l3-6 1-12-4-19-4-11c-2-8-4-15-8-23l-5-12v-14l2-7v-6l2-7v-4l3-8 6-6h8l2 1 1 1 1 1c4 1 5 5 5 7l1 3a28 28 0 0 1-1 13v3l1 6a507 507 0 0 1 15 35h6a200 200 0 0 0-8-42l-3-8-1-6-2-3-1-5v-7l2-2 1-3 4-3 4-1 7 1 2 2 1 1 2 2 2 2 5 4 6 6 4 9 5 19 3 17h1l1-4 1-4-1-14-2-11a65 65 0 0 1-7-15l-6-6-4-7c0-2-1-5 1-9 0 0 2-3 5-4h6l6 3 4 2c5 3 8 6 10 9 3 2 6 7 9 13l7 16 2 26-1 9"></path>
    <g class="st3">
      <path class="st4"
        d="M306 223l3 2a24 24 0 0 1 3 6l1 2v2-1l1 2v2l-2 3 1-3v-3l-1-1v-1l-1-1-1-4-1-3-1-1-2-1z"></path>
    </g>
    <g class="st3">
      <path class="st4"
        d="M484 126l-1 5v4h1v1h2l2 2 5 2h-1l1-1 1-2 1-2v-3 5l-1 2-1 2h-1a26 26 0 0 0-6-4h-2l-1-1v-1-2-2-3l1-2z"></path>
    </g>
  </g>
  <g id="h" class="st0">
    <path class="st1"
      d="M371 380l-16-14-16-16-9-8-4-3-4-5-2-4-2-11c-1-8-4-14-6-17l-4-8-2-6-1-2-1-2-3-9v-5l1-11v-9l-2-3-3-6-3-8 1-1 4-3c5-2 9-1 10-1l7 4c5 4 8 8 10 12l6 11 1 10-1 3-1 1 3 1c4 4 4 8 5 8l-2-10-9-26-6-21-4-25-3-15v-19c0-1 0-5 2-9l3-4 3-1c1 0 6-2 11 1 3 1 4 3 5 5 2 2 3 5 3 7l1 6 1 12 2 11 3 7 9 22 3 13a21 21 0 0 0 5 9h3l2-1 1-1v-4l-4-27c-1-8-2-13-1-19l1-11v-10l1-7 4-9 3-4c3-3 6-3 7-3l6 1c2 1 5 2 6 5 2 2 2 4 2 6v16l1 8 2 7 1 9 2 14 2 15 2 12-1-16v-16l-2-17-1-8-2-12a16 16 0 0 1 1-11l1-3 4-3c4-1 8 0 9 1l6 5c3 3 3 5 4 7l2 5a1454 1454 0 0 1 8 28l2 20 1 22h1l-3-44a53 53 0 0 0-1-11l-2-6-2-7v-10l2-4 1-2 2-2c3-2 6-2 9-1l2 2 5 5 3 8 4 16 3 15 2 19 1 16v14l2 10 3 14v12l1 11 2 18v22a124 124 0 0 0 10 45H371z"></path>
    <path class="st2"
      d="M371 380l-16-14-16-16-9-8-4-3-4-5-2-4-2-11c-1-8-4-14-6-17l-4-8-2-6-1-2-1-2-3-9v-5l1-11v-9l-2-3-3-6-3-8 1-1 4-3c5-2 9-1 10-1l7 4c5 4 8 8 10 12l6 11 1 10-1 3-1 1 3 1c4 4 4 8 5 8l-2-10-9-25M369 240h2l1-2v-3c-2-4-3-16-5-27v-20l1-10v-10l1-7 4-9 3-5c3-2 6-2 7-2l6 1c2 0 4 2 6 5l2 5v17l1 8 2 7 1 9 2 13 2 16 2 12-1-16v-16l-2-17-1-9-2-11a16 16 0 0 1 1-11l1-3 4-3c4-1 7 0 9 1s4 2 6 5l4 6 2 6a1454 1454 0 0 1 8 28l1 20 2 22h1l-3-44a53 53 0 0 0-1-11l-2-6-2-7v-10l2-4 1-2 2-2c3-3 6-2 9-1l2 1 5 6 3 8 4 16 3 15 2 18 1 17v14l2 10 3 14v12l1 11 2 17v22a124 124 0 0 0 10 46"></path>
    <path class="st5"
      d="M328 243v-2l-7-20-4-25-2-15v-20l2-8 2-4 4-1c1-1 6-2 10 1 3 1 5 3 6 5 2 2 3 5 3 7l1 6 1 12c0 3 0 7 2 11l2 7c4 7 7 14 9 22l4 13a21 21 0 0 0 5 9l2-1"></path>
    <g class="st3">
      <path class="st4"
        d="M318 160l1 2 2 1 1 1 1-1h2l9-5v0-1l-1-2v-2-2l1 2v6c-2 2-5 4-9 4l-2 1h-1-1-1l-1-2-1-2z"></path>
    </g>
    <g class="st3">
      <path class="st4" d="M304 250l2-5-1-2-1-2-2-5v-1l-1-1-3-1h3l1 1 1 1 2 5 1 5v3l-2 2z"></path>
    </g>
  </g>
  <g id="j" class="st4">
    <path class="st1"
      d="M382 380l-6-8-7-7-9-9-15-21c-5-7-7-10-11-13l-4-4-3-6-1-4v-11-7l-3-11-3-7-1-4v-4l-1-3-1-4-1-4 1-9 1-5v-9-4l-2-6-2-7-1-4 1-1 2-1c4-2 7-1 9-1 5 2 8 5 9 6l5 7a96 96 0 0 1 6 37l2 17a418 418 0 0 1-1 27l-1 11a49 49 0 0 1 3-18l-1-34-2-12-3-18-2-17v-14-12-11l2-16c3-10 9-13 13-13l7 2c5 4 7 9 7 10v31a132 132 0 0 1 7 29l6 31-8-51-4-44 1-4c1-3 4-4 4-4 6-4 11-2 12-1 2 0 5 2 7 5l2 5 2 9 2 6 7 18 3 12 1 13 2 16 5 11c-4-6-6-19-6-34l-6-27-3-6-4-10c0-3-1-6 1-10 0 0 3-5 8-6s8 1 9 2l5 4 6 10h1c0-3 2-9 6-10 3-2 5-1 6-1 4 1 6 4 7 5l5 7 6 17a194 194 0 0 1 8 49l1 15a105 105 0 0 1 5 33l1 19a1475 1475 0 0 1 2 61l4 13 4 9H382z"></path>
    <path class="st2"
      d="M382 249l-8-51-4-44 1-4c1-3 4-4 5-5 5-3 10-1 11-1 2 1 5 2 7 6l2 5 2 9 2 6 7 17 3 13 1 13 2 16 5 11c-4-6-5-19-6-34l-6-27-3-6-4-10 1-10c1 0 3-5 8-6s8 1 9 2l5 4 6 10h1c0-3 2-9 6-10 3-2 5-1 6-1 4 1 6 4 7 5l5 7 6 17a194 194 0 0 1 8 49l1 15a105 105 0 0 1 5 33l1 19a1475 1475 0 0 1 2 61l4 13 4 9"></path>
    <path class="st5"
      d="M342 228l-2-16v-15-11-11l2-16c3-10 7-12 13-13l7 2c5 4 7 8 7 13v28a132 132 0 0 1 7 29l6 31"></path>
    <path class="st2"
      d="M445 236l-1-20-3-21-1-6-12-26M382 380l-6-8-7-7-9-9-15-21c-5-7-7-10-11-13l-4-4-3-6-1-4v-11-7l-3-11-3-7-1-4v-4l-1-3-1-4-1-4 1-9 1-5v-9-4l-2-6-2-7-1-4 1-1 2-1c4-2 7-1 9-1 5 2 8 5 9 6l5 7a96 96 0 0 1 6 37l2 17a418 418 0 0 1-1 27l-1 11a49 49 0 0 1 3-18l-1-34-3-16"></path>
    <g class="st3">
      <path class="st4" d="M347 154l1 3v1l1 1h12l2-1v-1l1-3v3l-1 1-1 1-7 1h-6l-1-1-1-2v-3z"></path>
    </g>
    <g class="st3">
      <path class="st4" d="M321 226l1-2v-2-2-1l-1-2v-2l-1-3-3-3 4 3 1 2v3l1 2v5l-2 2z"></path>
    </g>
  </g>
  <g id="k" class="st0">
    <path class="st1"
      d="M381 380c-3-6-6-9-8-11l-5-4-7-7-7-9-15-20-6-8-4-4-3-9v-5-9l-1-5-4-13-2-7v-5l-2-5-1-7v-8l2-7v-10a56 56 0 0 1-6-19l2-1c3 0 7-2 12 0l5 3 5 5 4 8 3 17 2 11 1 4-6-39v-9l1-17v-9-8l1-13 3-9 6-4h7c4 1 6 3 7 4l3 5 1 7v24a899 899 0 0 0 7 30l2 14 2 14 1 6 2-2-5-21-4-28-2-16-2-10-1-16v-6c1-1 2-5 6-8l5-1c2 0 6-1 9 1 1 1 4 2 6 5l1 5 2 8 1 2v-7c1-3 2-7 5-9l6-2c5 1 8 3 10 5 4 4 8 13 9 14l1-5 2-4 3-3c0-1 3-2 6-1l4 2c3 2 4 4 5 6l3 5 4 9 5 17 4 15 1 23 2 16 3 16 1 17 1 16 1 40 1 24a86 86 0 0 0 8 22H381z"></path>
    <path class="st2"
      d="M381 380c-3-6-6-9-8-11l-5-4-7-7-7-9-15-20-6-8-4-4-3-9v-5-9l-1-5-4-13-2-7v-5l-2-5-1-7v-8l2-7v-10a56 56 0 0 1-6-19l2-1c3 0 7-2 12 0l5 3 5 5 4 8 3 17 2 11 1 4-6-39v-9l1-17v-9-8l1-13 3-9 6-4h7c4 1 6 3 7 4l3 5 1 7v24a899 899 0 0 0 7 30l2 14 2 14 1 6 1-1M399 165v-8c1-3 2-7 5-9s6-2 7-1c4 0 7 2 9 4 4 4 8 13 9 14l1-5 2-4 3-3c1 0 3-2 6-1l5 2 4 6 3 5 4 9 5 18 4 15 2 22 1 16 3 17 1 16 1 16 1 41a86 86 0 0 0 9 45"></path>
    <path class="st2"
      d="M445 236l-1-20c0-9-1-14-3-22l-5-14-7-16M344 311a62 62 0 0 1 4-17 332 332 0 0 1-2-38"></path>
    <path class="st5"
      d="M383 250v-1l-4-21-5-28-2-16-1-10-1-15v-7c0-1 1-5 5-7 2-2 4-2 6-2s5 0 9 2l5 5 2 4 1 8 1 3c3 6 6 11 7 16l6 23c1 4 1 29 6 37"></path>
    <g class="st3">
      <path class="st4"
        d="M375 149l-1 2v1h1l5-1a51 51 0 0 1 11 0v-1l-1-1-1-2a8 8 0 0 1 2 3l1 1h-6l-6 1h-7v-1l2-2z"></path>
    </g>
    <g class="st3">
      <path class="st4" d="M320 227l2-2 1-2-1-6-2-4c0-2-1-3-3-4 2 0 3 1 4 3l2 5v5l-1 3-2 2z"></path>
    </g>
  </g>
  <g id="l" class="st0">
    <path class="st1"
      d="M381 379a60 60 0 0 0-12-14l-10-10-10-14c-9-13-8-13-12-16l-7-8-3-7v-5-10l-2-9-4-14-1-7-2-3v-5l-2-3 1-10 2-12-1-6a45 45 0 0 1-5-17l2-1 4-2c3-1 6 0 9 1a28 28 0 0 1 12 15l1 8v5l2 7 2 12a1850 1850 0 0 0-5-55l1-15 1-18 2-10c1-3 3-6 6-8 4-2 8-1 11 1 3 1 5 3 5 4l3 9v9l-1 16v1l2 5 2 9 3 10 2 15a182 182 0 0 0 4 24l3-2a927 927 0 0 1-8-50l-4-33-1-10c0-5 1-6 2-7 2-4 6-5 7-5 0 0 6-2 10 1 3 2 4 4 5 6l4 13c0-9 3-16 8-18h5c4 0 7 3 9 5l5 8 3 5 3-7c1-2 2-4 5-5 0 0 4-1 7 1l3 2 6 10a64 64 0 0 1 6 17l7 24 1 6 1 15v16l1 2v4l2 8 2 10v12l1 11 1 7v46a95 95 0 0 0 3 21 103 103 0 0 0 6 16l-103-1z"></path>
    <path class="st2"
      d="M381 379a60 60 0 0 0-12-14l-10-10-10-14c-9-13-8-13-12-16l-7-8-3-7v-5-10l-2-9-4-14-1-7-2-3v-5l-2-3 1-10 2-12-1-6a45 45 0 0 1-5-17l2-1 4-2c3-1 6 0 9 1a28 28 0 0 1 12 15l1 8v5l2 7 2 12a1850 1850 0 0 0-5-55l1-15 1-18 2-10c1-3 3-6 6-8 4-2 8-1 11 1 3 1 5 3 5 4l3 9v9l-1 16v1l2 5 2 9 3 10 2 15a182 182 0 0 0 4 24l3-2a927 927 0 0 1-8-50l-4-33-1-10c0-5 1-6 2-7 2-4 6-5 7-5 0 0 6-2 10 1 3 2 4 4 5 6s4 6 4 12M429 164l3-7c1-2 2-4 5-5 0 0 4-1 7 1l3 2 6 10a64 64 0 0 1 6 17l7 24 1 6 1 15v16l1 2v4l2 8 2 10v12l1 11v7l1 13v33a95 95 0 0 0 3 21 103 103 0 0 0 6 16"></path>
    <path class="st5"
      d="M418 241c-2-3-4-8-4-11l-1-14-2-13-2-7-2-13-1-4-6-12c-3-13 3-19 7-21h5c4 0 7 3 9 5l5 8 3 5v1l12 29 2 17 2 25"></path>
    <path class="st2" d="M344 310l1-8 2-9-1-14-1-25"></path>
    <g class="st3">
      <path class="st4" d="M321 226l1-1 1-3-1-5-2-4-1-3-2-1 2 1 2 2a41 41 0 0 1 3 8v3l-1 2-2 1z"></path>
    </g>
    <g class="st3">
      <path class="st4" d="M403 154l1 2 1 1h7l5-2c2-1 1-3-1-4l2 2v2l-1 1-5 2h-7l-1-1-1-3z"></path>
    </g>
  </g>
  <g id="semicolon" class="st0">
    <path class="st1"
      d="M382 380l-9-11-7-6-22-27-9-13-5-5-2-3-1-8v-12l-4-17-2-6-1-8-3-7v-8l1-6 1-9-1-7a92 92 0 0 1-5-18h2l2-2h9c7 2 10 7 11 8 3 4 3 8 4 10a631 631 0 0 1 5 30l-5-41a511 511 0 0 1 0-33l2-19c2-9 4-11 5-12 3-3 8-2 8-2 5 0 8 2 9 3 3 3 3 6 4 8 2 5 1 8 1 14l-1 16 3 9 5 21 1 14 3 16 1 2 2-1-4-20-4-24-1-12-3-20-1-17v-3c1-5 5-8 6-8 4-3 10-2 13 0 1 0 5 3 6 7l1 5 2 6 3 8 4 11 1 6 2 8-1-18-5-9-3-8c0-4 1-8 3-10l1-2c3-3 7-3 8-3l8 4 7 10 3 6v-8s1-5 5-7c5-2 11 0 13 3l2 3a74 74 0 0 1 10 20l3 14 5 16 1 7v15l1 14 2 13c2 6 3 15 2 27l1 10 1 31v24l2 12 7 19H382z"></path>
    <path class="st2" d="M470 238v6l2 12c2 6 3 16 2 28l1 10 1 31v24l2 12 7 19"></path>
    <path class="st5"
      d="M430 166v-7c0-1 1-5 5-7 5-2 11 0 14 3l1 3a74 74 0 0 1 10 20l4 14 4 16 1 7v14l1 9"></path>
    <path class="st2"
      d="M345 311l1-10 1-3 1-8v-1l-2-35M419 240a50 50 0 0 1-6-23l-1-10-3-10M445 236v-21l-3-17-3-12-9-19"></path>
    <g class="st3">
      <path class="st4"
        d="M321 227c2-1 2-2 2-4a39 39 0 0 0-1-7 9 9 0 0 0-2-5l-1-1 3 3 2 5v6l-1 1-2 2z"></path>
    </g>
    <g class="st3">
      <path class="st4"
        d="M435 157l1 3 2 2 2 2 3 1h4l1-1h2v-1l-1-2-1-3 1 3 1 1 1 1-1 1-3 2h-4l-3-1-2-2-2-3-1-2v-1z"></path>
    </g>
    <path class="st2"
      d="M382 380l-9-11-7-6-22-27-9-13-5-5-2-3-1-8v-12l-4-17-2-6-1-8-3-7v-8l1-6 1-9-1-7a92 92 0 0 1-5-18h2l2-2h9c7 2 10 7 11 8 3 4 3 8 4 10a631 631 0 0 1 5 30l-5-41a511 511 0 0 1 0-33l2-19c2-9 4-11 5-12 3-3 8-2 8-2 5 0 8 2 9 3 3 3 3 6 4 8 2 5 1 8 1 14l-1 16 3 9 5 21 1 14 3 16 1 2 2-1-4-20-4-24-1-12-3-20-1-17v-3c1-5 5-8 6-8 4-3 10-2 13 0 1 0 5 3 6 7l1 5 2 6 3 8 4 11 1 6 2 8-1-18-5-9-3-8c0-4 1-8 3-10l1-2c3-3 7-3 8-3l8 4 7 10 3 6"></path>
  </g>
  <g id="quote" class="st0">
    <path class="st1"
      d="M382 380c-7-9-14-14-19-17l-11-8-8-7-13-11-5-5-4-12-3-17-4-12-2-11-3-6v-14l1-6v-5l1-5-4-13-1-6 5-2c5-2 10 0 12 1l7 6c8 9 10 24 11 27l-1 5-2 3 3 3 2 4 5 15-3-42-4-22-2-24 1-10 1-18c2-12 4-16 6-17 3-4 6-5 7-5 3-1 5 0 6 1 5 1 7 5 7 7l2 5v20 8l1 5 4 12 2 16 2 12 2 9v-1l-2-15-1-12-4-16-1-10v-15l-1-6c-1-7-2-9-1-13l2-4c1-2 2-6 7-7 5-2 9 0 9 0 3 1 5 4 6 6 2 2 4 7 4 14a88 88 0 0 1 9 29l3 15a483 483 0 0 0 6 18c2-12 1-20 0-25l-4-15-1-10a61 61 0 0 1-7-18v-8l4-4c4-2 8 0 10 1l5 3 7 8 6 10 2 7 5 9 2 11a161 161 0 0 1 2 38l3-1 3-5 2-8 2-6a172 172 0 0 0 4-21l-1-10-1-8c0-7-1-11 1-14 0-2 2-7 7-9 0 0 6-2 10 1l2 4a80 80 0 0 1 6 29c1 13 2 20 1 25l-1 15-5 15a59 59 0 0 0-2 12v16l-1 13 2 12 1 21 1 21v9l3 15 8 19-111 1z"></path>
    <path class="st2"
      d="M482 241a59 59 0 0 0-2 12l-1 16-1 13 2 12 1 22 1 21v9l4 15c1 5 3 11 7 18M382 380c-7-9-14-14-19-17l-11-8-8-7-13-11-5-5-4-12-3-17-4-12-2-11-3-6v-14l1-6v-5l1-5-4-13-1-6 5-2c5-2 10 0 12 1l7 6c8 9 10 24 11 27l-1 5-2 3 3 3 2 4 5 15-3-42-4-22-2-24 1-10 1-18c2-12 4-16 6-17 3-4 6-5 7-5 3-1 5 0 6 1 5 1 7 5 7 7l2 5v20 8l1 5 4 12 2 16 2 12 2 9v-1l-2-15-1-12-4-16-1-10v-15l-1-6c-1-7-2-9-1-13l2-4c1-2 2-6 7-7 5-2 9 0 9 0 3 1 5 4 6 6 2 2 4 7 4 14a88 88 0 0 1 9 29l3 15a483 483 0 0 0 6 18c2-12 1-20 0-25l-4-15-1-10a61 61 0 0 1-7-18v-8l4-4c4-2 8 0 10 1l5 3 7 8 6 10 2 7 5 9 2 11a161 161 0 0 1 2 38"></path>
    <path class="st5"
      d="M450 234l1-1 3-5 2-8 2-6a172 172 0 0 0 4-20v-10l-1-9v-14c0-1 2-6 7-8 1 0 6-3 10 0l2 4a80 80 0 0 1 6 29l2 25-2 15-4 15"></path>
    <g class="st3">
      <path class="st4"
        d="M315 243l1-1v-2-4a52 52 0 0 0-1-6l-1-2-1-1-1-1 3 2 1 4a28 28 0 0 1 1 8v1l-1 1-1 1z"></path>
    </g>
    <g class="st3">
      <path class="st4" d="M468 157l1 5 1 2v1l1 1 1 1h9l-6 1h-2-1-1l-1-1-1-1v-2l-1-2v-5z"></path>
    </g>
  </g>
  <g id="enter" class="st0">
    <path class="st1"
      d="M387 379l-14-11-4-3-17-12-14-9-7-5c-4-5-6-11-7-14v-7l-4-17-4-14-1-6a12 12 0 0 1-2-6l-1-4v-9l1-15-2-5c-3-5-4-10-5-15l5-3c5-2 11 0 13 1l7 5c9 9 10 20 11 23v10l-1 1 4 6 4 11 1 3v3l4 4 2 3 3-3 2-11c0-12-1-22-3-30l-3-17-5-16a163 163 0 0 1-2-58l4-8a12 12 0 0 1 13 0l4 5 3 6 1 10 1 11 3 7 7 16 7 25h5a127 127 0 0 0-6-47 38 38 0 0 1-6-10l-3-5-4-8 1-6 2-3c1-2 3-3 5-3 1 0 5-1 8 1a300 300 0 0 1 23 16l6 7 3 6a447 447 0 0 1 6 42l3-3 1-3-1-9-1-11v-6l-7-7-1-8-2-2-7-9-4-4-2-5c0-3 2-5 3-6 4-4 9-3 9-3l4 2 4 4 7 3c7 5 11 9 13 12l6 8 5 6 3 4 1 2v24l-1 13 3-6 3-7c1-2 2-6 5-9l1-2 4-12 3-7c0-5 3-18 6-24 1-3 3-5 7-7 1 0 4-2 8-1l5 3c2 2 2 5 2 6a76 76 0 0 1-3 21l-2 8-2 5-3 19-1 4-2 6-7 19-2 5-3 13-1 9-1 4v6l-1 12 1 18a440 440 0 0 0 4 42l4 14 8 17H387z"></path>
    <path class="st2"
      d="M387 379l-14-11-4-3-17-12-14-9-7-5c-4-5-6-11-7-14v-7l-4-17-4-14-1-6a12 12 0 0 1-2-6l-1-4v-9l1-15-2-5c-3-5-4-10-5-15l5-3c5-2 11 0 13 1l7 5c9 9 10 20 11 23v10l-1 1 4 6 4 11 1 3v3l4 4 2 3 3-3 2-11c0-12-1-22-3-30l-3-17-5-16a163 163 0 0 1-2-58l4-8a12 12 0 0 1 13 0l4 5 3 6 1 10 1 11 3 7 7 16 7 25h5a127 127 0 0 0-6-47 38 38 0 0 1-6-10l-3-5-4-8 1-6 2-3c1-2 3-3 5-3 1 0 5-1 8 1l8 4 8 6 7 6 6 7 3 6a447 447 0 0 1 6 42l3-3 1-3-1-9-1-11v-6l-7-7-2-8-9-11c-2-2-3-3-3-5l-2-4c0-3 3-6 4-7 4-3 8-2 8-2l4 2 4 4 7 3c7 5 11 9 13 12l6 8 5 6 3 4 1 2v24l-1 13M491 239l-2 4-3 14-1 8-1 5-1 6v12l1 18a440 440 0 0 0 4 42l4 14 8 17"></path>
    <path class="st5"
      d="M464 223l3-6 3-8 5-9 1-1 4-13 3-7c0-4 2-18 6-23 1-3 3-6 7-7 0-1 4-3 8-1l5 3c2 2 2 4 2 5a76 76 0 0 1-3 21l-3 8-1 5-4 19v5l-2 6-7 19"></path>
    <g class="st3">
      <path class="st4"
        d="M498 152l-1 3v7l1 1h-1l4 1 3 1h2l1-1 1-4-1 4-1 1-2 1-4-1-3-1v-1l-1-1v-2-2l1-3 1-3z"></path>
    </g>
    <g class="st3">
      <path class="st4" d="M316 245l1-2v-2l-1-6-1-2v-2-1l-5-2h3l2 2h1v2l1 3a100 100 0 0 1 0 8l-1 2z"></path>
    </g>
  </g>
  <g id="n" class="st0">
    <path class="st1"
      d="M374 380l-17-13-12-11-11-8-5-5c-2-3-2-5-3-10l-3-11-5-12-6-12-1-2-3-9-2-10v-17a67 67 0 0 1-7-19l5-3c4-2 8-1 10 0l8 5c3 3 7 7 11 14 1 2 4 9 4 17v2l4 6 4 9-16-46a68 68 0 0 1-3-19l1-22c0-5 4-19 6-21l3-2 8-2c6 1 10 5 11 8l1 4v18l1 10 4 9 7 19 5 13 9-1-3-20-4-13-2-12-2-13-1-14-3-15v-12l4-8c1-1 3-3 7-4 5 0 9 3 10 4 3 2 4 5 5 8l2 8 1 12 3 8 8 21a290 290 0 0 1 8 36l1-1-2-16-2-19-1-3a200 200 0 0 1-7-22 150 150 0 0 1-8-20c0-2-1-7 3-11 0-1 2-3 5-4 4-1 7 1 10 3 5 4 7 8 9 11l4 11a80 80 0 0 1 6 10l-2-10 1-8 2-6c1-1 3-3 7-4 4 0 7 3 7 3a51 51 0 0 1 7 15l3 12a609 609 0 0 1 9 43l2 19 1 6 1 6a4678 4678 0 0 0 12 62c1 10 0 13 2 22l2 9 8 16 6 11H374z"></path>
    <path class="st2"
      d="M377 260l5-1c0-9-2-15-3-20l-3-13-3-12-2-13-1-14-2-15v-12l3-8c1-1 3-3 7-4 5 0 9 3 10 4 3 2 4 5 5 8l2 8 1 12 4 8 7 21a290 290 0 0 1 8 36l1-1-2-16-2-19v-3a200 200 0 0 1-7-22 150 150 0 0 1-8-20c-1-2-1-7 2-11 1-1 2-3 5-4 4-1 7 1 10 3 5 4 7 8 9 11l4 11a80 80 0 0 1 6 10l-2-10 1-8 3-6 6-4c4 0 7 3 8 3a51 51 0 0 1 7 15l2 12a609 609 0 0 1 9 43l2 19 1 6 1 6a4678 4678 0 0 0 12 62l3 22 2 8a102 102 0 0 0 14 27"></path>
    <path class="st5"
      d="M337 264l-8-19a68 68 0 0 1-2-19v-22c1-5 2-12 6-21l3-2 8-2c6 1 10 5 12 8v22l2 10 3 9 7 19 6 13h3"></path>
    <path class="st2" d="M447 239a301 301 0 0 0-5-37l-4-9-7-14"></path>
    <g class="st3">
      <path class="st4" d="M308 258l1-1v-2l-1-1-1-5-2-5-1-1-2-1h2l2 2 1 2 1 3 1 4v4l-1 1z"></path>
    </g>
    <g class="st3">
      <path class="st4" d="M334 187v3h2l6-2 5-1h1v-1-3l1 3v1l-1 1h-1a84 84 0 0 0-12 2h-1v-3z"></path>
    </g>
    <path class="st2"
      d="M374 380l-17-13-12-11-11-8-5-5c-2-3-2-5-3-10l-3-11-5-12-6-12-1-2-3-9-2-10v-17a67 67 0 0 1-7-19l5-3c4-2 8-1 10 0l8 5c3 3 7 7 11 14 1 2 4 9 4 17v2l4 6 4 9-9-26"></path>
  </g>
  <g id="m" class="st0">
    <path class="st1"
      d="M387 380l-21-29-13-19-7-12-7-8-3-7v-9l-1-16-1-10-2-15v-7-4l1-7a114 114 0 0 1 8-15 99 99 0 0 1 3-24h6l7 2-2-6 1-6c2-6 10-7 11-7a18 18 0 0 1 15 4v-4l-3-4c-1-2-4-9-3-16 1-3 2-7 5-10 0 0 3-2 7-2 3 0 5 1 7 3l7 6 2-3 1-1 1-3 4-3c4-1 8 1 10 2l5 5 6 5 3 2 2-3 2-2 2-3 5-1c2 0 4 2 5 3l2 2 6 10 6 13 3 7 5 13 4 5 2 5 1 6v2l1 6 2 16 2 10 2 5 3 11 2 13-2 22-3 20-2 17v10l1 18 2 10 2 3H387z"></path>
    <path class="st2"
      d="M387 380l-21-29-13-19-7-12-7-8-3-7v-9l-1-16-1-10-2-15v-7-4l1-7a114 114 0 0 1 8-15 99 99 0 0 1 3-24h6l7 2M383 185v-4l-3-4c-1-2-5-9-3-17 0-2 1-6 4-9 1 0 3-2 7-2 3 0 5 1 8 3 1 1 4 2 6 6l2-3 1-1 1-3c1-2 4-3 5-3 4-1 7 1 9 2l5 5 6 5 3 2 2-3 3-2 2-3 4-1c3 0 4 2 5 3l2 2 6 10 6 13 3 7 6 13 3 5 2 5 1 6v2l2 6 2 16 2 10 1 5 4 11 1 13-2 22-2 20-2 17v28l3 10 1 3"></path>
    <path class="st2" d="M371 275l-3-7a42 42 0 0 0-4-21v-11"></path>
    <path class="st5"
      d="M413 248l-5-10-2-12-5-19c-2-6-4-11-7-14l-4-3-7-5-6-4h-10c-1 0-8 1-11 7l-1 6 2 6v1l2 11v3a475 475 0 0 1 12 58v7l-3 8"></path>
    <path class="st2"
      d="M447 238a85 85 0 0 1-9-24l-4-16-5-11-5-5-10-10-6-4-6-10M473 239l-3-2v-3l-1-6-3-21-5-14v-3c-1-3-7-8-12-13l-7-7-9-9"></path>
    <g class="st3">
      <path class="st4" d="M349 201l1 2v8l-2 6-1 2-3 1 2-1 2-3 1-5v-5-3-2z"></path>
    </g>
  </g>
  <g id="comma" class="st0">
    <path class="st1"
      d="M390 380l-6-9c-2-4-5-6-7-8l-12-14c-16-22-15-23-20-27-1-1-4-3-6-7l-3-9-2-9-3-12-5-12-2-9-3-5v-2a17 17 0 0 1-2-11v-16l-2-7-5-12-1-4 2-1 6-3c5-1 9 1 12 3 1 1 8 4 13 13 3 5 5 10 7 19l2 7 5 6 3 9c-4-15-10-29-15-43l-2-16-1-4-3-17c0-3-1-10 1-18 0-2 0-4 2-6 0 0 4-4 9-4 2 0 4 1 7 4l5 4a180 180 0 0 0 11 33l6 10 6 14 9 20 2-2c2-2 2-4 2-6v-17l-2-6-1-4-5-4-6-6-1-5c0-4 0-11 5-16 3-4 7-6 10-6 5-2 8-2 11-2l-1-5 1-4c2-4 5-6 6-6 4-2 8 0 10 1l4 3 2 2 5 2a29 29 0 0 1 4-4l2-4c3-2 6-1 7-1 3 1 5 4 5 4l2 4a125 125 0 0 1 9 16l5 13 7 15a113 113 0 0 1 5 22l3 15 4 15 4 15v14l-1 15v13l-1 21-1 18v19l1 6 3 8H390z"></path>
    <path class="st2"
      d="M390 380l-6-9c-2-4-5-6-7-8l-12-14c-16-22-15-23-20-27-1-1-4-3-6-7l-3-9-2-9-3-12-5-12-2-9-3-5v-2a17 17 0 0 1-2-11v-16l-2-7-5-12-1-4 2-1 6-3c5-1 9 1 12 3 1 1 8 4 13 13 3 5 5 10 7 19l2 7 5 6 3 9c-4-15-10-29-15-43l-2-16-1-4-3-17c0-3-1-10 1-18 0-2 0-4 2-6 0 0 4-4 9-4 2 0 4 1 7 4l5 4a180 180 0 0 0 11 33l6 10 6 14 9 20 1-1M411 163l-1-5 1-4c2-4 5-6 6-6a15 15 0 0 1 14 4l2 2 5 2a29 29 0 0 1 4-4l2-4c3-2 6-1 7-1 3 1 5 4 5 4l2 4a125 125 0 0 1 9 16l5 13 6 15a113 113 0 0 1 6 22l3 15 4 15 3 15 1 14-1 15v13l-1 22-2 17 1 19 1 6 3 8"></path>
    <path class="st2" d="M361 296c0-3 1-5 3-8l1-4-2-8c0-6-2-12-3-17"></path>
    <path class="st5"
      d="M445 232l-3-18c-1-3-2-9-2-19-1-9-4-18-6-21-1-2-3-3-6-4-7-4-14-6-17-7-3 0-6 0-11 2-3 0-7 2-10 6a21 21 0 0 0-5 21l7 6 5 4 1 4 2 6v17c0 2 0 4-2 6l-1 1"></path>
    <path class="st5" d="M390 186l2 5 3 3 1 3 1 5"></path>
    <path class="st2" d="M472 233c0-16-1-24-2-29l-3-13-1-4-1-4-10-13-11-9-6-5"></path>
    <g class="st3">
      <path class="st4" d="M322 227l2-5-1-3-1-2-2-6-1-2-2-2 2 1 2 3 2 5 1 3 1 3-1 3-2 2z"></path>
    </g>
  </g>
  <g id="period" class="st0">
    <path class="st1"
      d="M406 380l-6-9-11-8-16-15-12-12-10-10-7-6c-1-2-3-4-4-10l-4-14-5-15-3-11-3-9c-1-6 0-11 1-14l2-6 2-6 1-2a62 62 0 0 1-1-24h2l5-1c5 0 8 2 9 3v-8l-3-12-2-15-1-11 3-8c1-1 3-3 7-4 6-1 11 3 12 3l4 6 4 12 1 8 2 9 4 8 5 9 10 19 5 12h1l-1-7-3-8-7-18-6-16-4-13-3-10c-1-4-2-7 0-10l1-3 2-4c2-3 5-4 6-4 5-2 9 1 10 1l2 3 4 3 2 4 2 6 3 4 7 7 6-1h16l3-1a20 20 0 0 1 1-16l2-3 1-2 3-1h5l4 4 6 8 5 7 7 10a111 111 0 0 0 11 17l3 10 4 13 1 10 1 6 5 15 2 14 1 16-1 11v21a438 438 0 0 0 3 41l4 10 9 17H406z"></path>
    <path class="st2"
      d="M438 171a20 20 0 0 1 1-15c0-2 1-3 2-3l1-2 3-2 5 1 4 4 6 8c2 1 3 4 5 7l7 9a111 111 0 0 0 11 18l3 10 4 12 1 11 1 6 5 15 2 14 1 16v11l-1 21a438 438 0 0 0 3 41l4 9 9 18"></path>
    <path class="st5"
      d="M427 202h3l1 6 3 6v4M475 237l-2-5-1-4-1-17-1-15-2-5-4-12-4-4-4-1-18-3-3 1-2 1h-14l-5 1"></path>
    <path class="st2"
      d="M366 295c2-4 2-7 2-10l-1-10-2-6-1-7-4-10a595 595 0 0 1-14-41M444 233a33 33 0 0 1-11-15l-5-14-5-11c0-2-1-6-4-10l-4-7-2-2"></path>
    <path class="st2"
      d="M406 380l-6-9-11-8-16-15-12-12-10-10-7-6c-1-2-3-4-4-10l-4-14-5-15-3-11-3-9c-1-6 0-11 1-14l2-6 2-6 1-2a62 62 0 0 1-1-24h2l5-1c5 0 8 2 9 3v-8l-3-12-2-15-1-11 3-8c1-1 3-3 7-4 6-1 11 3 12 3l4 6 4 12 1 8 2 9 4 8 5 9 10 19 5 12h1l-1-7-3-8-7-18-6-16-4-13-3-10c-1-4-2-7 0-10l1-3 2-4c2-3 5-4 6-4 5-2 9 1 10 1l2 3 4 3 2 4 2 6 3 4 7 7"></path>
    <g class="st3">
      <path class="st4" d="M334 232l1-2 1-3v-11-3-2l1 3v8a34 34 0 0 1-1 8l-1 1-1 1z"></path>
    </g>
  </g>
  <g id="slash" class="st0">
    <path class="st1"
      d="M355 380l-11-20-5-10-6-12-5-9-3-9v-8-19l-1-8a132 132 0 0 1-2-19v-7l1-8 2-9v-2l-1-5a104 104 0 0 1-3-17h2l3-3h5l2-16v-4-11c0-2 0-10 4-17l2-6 4-5 5-2 8 2 3 3c1 1 3 2 4 5v3a14 14 0 0 1 5-9l2-3c2-3 6-4 7-4s7-1 10 3l2 2 2 3 3 5 1 7 2 8c5 10 11 53 13 53a212 212 0 0 0-3-42c-2-6-4-10-5-18l1-9 4-6s4-3 8-2c3 0 4 1 7 3l6 8 5 9 6 13 4 14 1 13v21a484 484 0 0 0 3 7l1-5 5-18 1-11-1-11v-7c0-2 1-7 4-11l4-2 2-2 6-1c4 1 6 5 6 6l2 6a42 42 0 0 1 4 19l1 14 1 10c0 8-1 14-3 19l-3 16-2 13-1 22 1 10 1 12 1 17 1 26 2 11 1 4H355z"></path>
    <path class="st2"
      d="M355 380l-11-20-5-10-6-12-5-9-3-9v-8-19l-1-8a132 132 0 0 1-2-19v-7l1-8 2-9v-2l-1-5a104 104 0 0 1-3-17h2l3-3h5l2-16v-4-11c0-2 0-10 4-17l2-6 4-5 5-2 8 2 3 3c1 1 3 2 4 5v3a14 14 0 0 1 5-9l2-3c2-3 6-4 7-4s7-1 10 3l2 2 2 3 3 5 1 7 2 8c5 10 11 53 13 53a212 212 0 0 0-3-42c-2-6-4-10-5-18l1-9 4-6s4-3 8-2c3 0 4 1 7 3l6 8 5 9 6 13 4 14 1 13v21l1 10M477 265l-2 13-1 22 1 10 1 12 1 17 1 26 2 11v4"></path>
    <path class="st5"
      d="M446 245l1-2 1-5 5-19 1-10v-12l-1-6c0-3 1-7 4-11l4-2 2-2 6-1c4 1 6 5 6 6l1 6a43 43 0 0 1 4 19l1 14 1 10-2 19-4 16"></path>
    <path class="st2" d="M373 247l-1-11-3-12-4-15-2-22v-22M337 283v-21-6l-2-9-4-22v-11"></path>
    <g class="st3">
      <path class="st4" d="M463 180l1 4a18 18 0 0 0 2 4l3 2h5l-5 1-2-1-2-1-1-3-1-2v-4z"></path>
    </g>
    <g class="st3">
      <path class="st4" d="M327 237l1-2v-2-5l-1-5-1-2v-1l-1-1 1 1 1 1 1 2 1 5v7l-2 2z"></path>
    </g>
  </g>
  <g id="shift-right" class="st0">
    <path class="st1"
      d="M357 380a2801 2801 0 0 0-32-32l-12-11c-2-2-4-5-5-9s-2-6-2-13l-1-14-4-19-2-9v-11l2-6 2-10a80 80 0 0 1-4-23l3-1 3-1c2 0 6-1 10 1l3 3 6 7 5 12 1 11-1 8-1 2 1 2 2 3 3 9 1 6 3 5 2 4a109 109 0 0 0 1-25l-1-15-3-23c-2-11-2-18-1-26l1-10 1-12 2-18c2-5 4-10 9-12l6-2c4 1 7 3 7 4 3 2 3 4 4 6l1 11-1 12v16l3 15a308 308 0 0 1 5 34h3l-2-16a246 246 0 0 1-3-44l2-7v-9l3-11c1-3 1-5 3-7l8-4c4 0 7 1 7 2 4 2 5 4 6 5l1 6 1 8v14l2 28 5 25 5 2a57 57 0 0 0 3-28 142 142 0 0 0-5-34l-3-12 1-8c0-2 1-4 4-6 4-3 9 0 10 1l5 5 5 9c2 2 2 4 5 15a319 319 0 0 0 7 26 300 300 0 0 1-1 41h2l3-1c2 0 3-1 5-3l5-7 9-11a175 175 0 0 1 11-20v-5l1-10c0-3 1-8 6-11 1-1 5-5 10-4 4 1 7 4 7 5l1 8v14l-1 4a239 239 0 0 1-20 53l-2 3-8 11-3 8c-3 6-1 8-3 15l-2 5v29l-1 14-2 11v11l5 11H357z"></path>
    <path class="st2"
      d="M357 380a2801 2801 0 0 0-32-32l-12-11c-2-2-4-5-5-9s-2-6-2-13l-1-14-4-19-2-9v-11l2-6 2-10a80 80 0 0 1-4-23l3-1 3-1c2 0 6-1 10 1l3 3 6 7 5 12 1 11-1 8-1 2 1 2 2 3 3 9 1 6 3 5 2 4a109 109 0 0 0 1-25l-1-15-3-23c-2-11-2-18-1-26l1-10 1-12 2-18c2-5 4-10 9-12l6-2c4 1 7 3 7 4 3 2 3 4 4 6l1 11-1 12v16l3 15a308 308 0 0 1 5 34h3l-2-16a246 246 0 0 1-3-44l2-7v-9l3-11c1-3 1-5 3-7l8-4c4 0 7 1 7 2 4 2 5 4 6 5l1 6 1 8v14l2 28 5 25 5 2a57 57 0 0 0 3-28 142 142 0 0 0-5-34l-3-12 1-8c0-2 1-4 4-6 4-3 9 0 10 1l5 5 5 9c2 2 2 4 5 15a319 319 0 0 0 7 26 300 300 0 0 1-1 41h2M475 276l-3 7c-3 7-1 9-3 15l-2 6v29l-1 14-2 11v11l4 11"></path>
    <path class="st5"
      d="M448 250l4-1 4-3 6-7 8-11a175 175 0 0 1 11-21v-4l1-10c1-3 2-8 6-11 1-2 5-5 10-4 4 1 7 4 7 5l1 8v14l-1 4a239 239 0 0 1-20 53l-2 3-8 11"></path>
    <g class="st3">
      <path class="st4" d="M494 182v10l1 1v1l2 2 5 1-5-1-3-1v-1l-1-2v-5l1-5z"></path>
    </g>
    <g class="st3">
      <path class="st4" d="M306 244l1-2 1-3-1-2v-3-5l-1-2-2-2 2 2 1 2 1 5v8l-2 2z"></path>
    </g>
  </g>
  <g id="space" class="st0">
    <path class="st1"
      d="M377 380l-6-11-11-12-14-18-8-11-6-7-5-6-2-9v-12l-2-8-4-15-2-7-1-3-1-7c-1-3 0-6 1-13l1-12-1-2a52 52 0 0 1-5-19l2-1 4-2c3-1 6 0 8 1 2 0 8 3 11 9l3 7 2 8-1-30v-13a470 470 0 0 1 4-33c1-2 2-4 5-6 4-2 8-1 9 0 5 1 7 5 8 7l2 9v6l-1 18 3 9 3 14 2 12 3 17 2 11 3-2-2-12-5-28a717 717 0 0 1-5-37l-1-14v-5c0-1 1-6 5-8l5-1c1 0 7 0 11 4 2 1 6 10 6 15h1c0-1 0-8 3-11l1-2c3-4 8-4 11-3l5 3 3 3 8 12s1-7 3-9c0-1 2-3 5-4 0 0 3-1 6 1 2 0 2 1 3 2l5 8a190 190 0 0 1 15 51l1 15v13l1 3 2 9 2 11 1 31 1 17v33a143 143 0 0 0 7 34H377z"></path>
    <path class="st2" d="M416 240c-2-4-4-16-5-26l-1-11a516 516 0 0 0-6-25l-7-16"></path>
    <path class="st2"
      d="M416 241c-3-5-4-8-4-11l-2-16-1-11a516 516 0 0 0-6-25l-6-15M444 237a223 223 0 0 0-3-40l-5-14-9-21"></path>
    <path class="st2"
      d="M481 380a112 112 0 0 1-7-34v-33l-1-17-1-31-2-11-3-10v-2-13l-1-15-2-9a154 154 0 0 0-13-42l-5-8-3-2c-3-2-6-1-7-1l-5 4c-2 2-3 9-3 9l-8-12-2-3-5-3c-3-1-9-1-11 2l-2 3c-2 3-2 10-2 11h-1c0-6-4-14-6-16-4-3-10-3-11-3l-5 1c-4 2-5 7-5 8v5l1 14a468 468 0 0 0 5 37l4 28 3 12-3 2-3-11-2-18-2-12-4-14-2-8a751 751 0 0 1 1-24l-3-9c-1-2-3-6-7-7-1-1-5-2-9 0l-6 6c-2 4-2 7-2 13l-1 20v13l1 30M336 326l1 2 9 11 14 18 11 12 6 11"></path>
    <path class="st5"
      d="M344 304l2-10-1-30-4-34-2-8-3-7c-3-6-9-8-11-9s-5-2-9-1l-5 3a56 56 0 0 0 5 19v2c1 5 0 8-1 12l-1 13 2 7 1 3 2 7 4 15 2 8v12c0 4 0 6 2 9l1 2 8 9"></path>
    <g class="st3">
      <path class="st4" d="M319 227l2-1v-1-2l-1-5-1-5-2-2-2-2 3 1 1 1v1l1 1 1 5 1 5v2l-1 1-2 1z"></path>
    </g>
  </g>
  <g id="6" class="st0">
    <path class="st1"
      d="M444 364l-8-20-1-16c0-5 3-20 3-34l2-30v-25-19l1-3c0-5 2-7 4-14l1-4v-6l3-9 2-6v-14a16 16 0 0 0-2-10l-3-5c-4-3-9-2-9-2l-4 3c-1 1-5 4-6 9l-1 6c0 3-1 12-4 19l-2 4-4 5-4 5 3-16 6-19 3-10c0-2 0-9-6-15-5-4-13-5-17-3l-6 3-4 5-3-10c-1-3-5-10-13-13-4-2-8-2-16-2l-8 1a17 17 0 0 0-8 11 283 283 0 0 0-3 48l-2 3h-3l-1-2-6-20-7-17-3-8-1-9-1-18-2-4-4-6c-3-3-9-6-14-4s-7 8-8 11v15l1 13 2 10v15l2 11 3 14 2 8 1 9a172 172 0 0 0 1 22l2 18-2 13c-1 6-1 22 3 37l4 14 2 10 5 17 6 13a372 372 0 0 1 16 37h116l-8-16zm-59-199c-2 5-2 7-4 9l-3 4c-2-5-2-12-1-20l5-1 7-3-4 11z"></path>
    <path class="st2"
      d="M336 380a441 441 0 0 0-15-37l-7-13-4-17-3-10-3-14c-5-15-4-31-3-37l1-13-2-18a109 109 0 0 1 0-22M338 181l2-3v-6a268 268 0 0 1 4-45c1-1 3-6 7-8l8-1c8 0 12-1 16 2 8 3 12 10 13 13l3 9 4-4 5-3c5-2 13-1 18 3 6 6 6 13 6 15l-3 9-6 20-3 16 4-5 4-5 2-4c3-7 4-16 4-19l1-6c1-5 5-8 6-9l4-3s5-2 9 1l3 6 2 4v19l-2 7-3 8v7l-1 4c-2 7-4 9-4 14l-1 2v45l-2 30c0 14-3 29-3 34l1 16 8 20 8 16"></path>
    <path class="st5"
      d="M299 199l-1-8-2-8-3-15-1-11-1-15-2-10-1-13v-15c1-3 3-9 8-11s11 1 14 4c3 2 4 5 4 6l2 4 2 18 1 9 2 8 7 17 6 20 1 2h3"></path>
    <path class="st2" d="M391 143l-2 11-4 11-4 9-3 4c-2-5-2-12-1-20l2-23"></path>
    <path class="st2" d="M377 158l5-1 7-3M414 206c-1-1-2-4-1-8"></path>
    <g class="st3">
      <path class="st4"
        d="M292 103v4l1 2 1 1h3l4-1 3-2 1-1 1-1v-4l-1-4 2 4v4l-1 2-1 1-4 2-3 1h-4l-2-2v-2-4z"></path>
    </g>
  </g>
  <g id="backslash" class="st0">
    <path class="st1"
      d="M482 380l-7-6-5-3-30-14-22-11a111 111 0 0 1-27-23c-14-14-15-17-19-19l-6-5-3-6-4-12-4-12-5-8c-3-3-5-5-5-8v-5c1-3 4-5 5-5h5c5 0 10 3 14 6 5 4 11 8 16 16l6 10 3 2 3 2 12 13 1 2h6l1-15c1-10 0-13-1-15l-3-6-5-9-19-23c-10-11-14-14-19-23l-9-13-9-15-7-10-3-12c1-1 1-5 4-7 5-3 10-2 10-2l6 4 12 13 11 15 10 11 21 21 6 7c3 3 5 5 7 5 1 0 6 1 9-3 2-3 2-6 1-8 0-5-2-8-3-9l-13-22-7-12-6-12-10-16-5-10-1-8c1-1 2-5 5-7 4-3 9-2 10-2l7 5 9 10 7 9 15 17 6 10 7 13 16 31h3l2-3c1-4 0-8-1-10l-3-12-2-11-4-7-10-15-1-2a359 359 0 0 1-15-18c0-2-2-5 0-9 0-1 1-4 4-5 3-2 6-1 7-1l3 1 5 3a54 54 0 0 1 8 4 183 183 0 0 1 36 44l1 3 1 4 3 11 2 19 1 1 1-2c3-15 3-23 3-23v-9l-1-7-5-17-2-6c0-3-1-6 1-10 0-2 1-6 5-8 0-1 4-3 9-2 1 0 3 1 5 4l1 4 1 3 4 7a165 165 0 0 1 12 40v9l1 26c1 12 1 18 3 24a292 292 0 0 1 22 65l4 29 3 7c3 11 4 25 6 28l10 15H482z"></path>
    <path class="st2"
      d="M482 380a33 33 0 0 0-12-9l-30-14-22-11a111 111 0 0 1-27-23c-14-14-15-17-19-19l-6-5-3-6-4-12-4-12-5-8c-3-3-5-5-5-8v-5c1-3 4-5 5-5h5c5 0 10 3 14 6 5 4 11 8 16 16l6 10 3 2 3 2 12 13 1 2h6l1-15c1-10 0-13-1-15l-3-6-5-9-19-23c-10-11-14-14-19-23l-9-13-9-15-7-10-3-12c1-1 1-5 4-7 5-3 10-2 10-2l6 4 12 13 11 15 10 11 21 21 6 7c3 3 5 5 7 5 1 0 6 1 9-3 2-3 2-6 1-8 0-5-2-8-3-9l-20-34-6-12-10-16-5-10-1-8c1-1 2-5 5-7 4-3 9-2 10-2l7 5 9 10 7 9 15 17 6 10 7 13 16 31h3l2-3c1-4 0-8-1-10l-3-12-2-11-4-7-10-15-1-2a359 359 0 0 1-15-18c0-2-2-5 0-9 0-1 1-4 4-5 3-2 6-1 7-1l3 1 5 3a54 54 0 0 1 8 4 183 183 0 0 1 36 44l1 3 1 4 3 11 2 19 1 1M551 212l2 24 7 15c5 12 14 40 15 50l5 28 2 8c4 10 5 25 7 28l10 15"></path>
    <path class="st5"
      d="M516 202l1-2c3-14 3-23 3-23v-8l-1-8-5-16-2-6c0-3-1-7 1-11 0-2 1-5 5-8 0 0 4-3 9-2 1 1 3 1 5 4l1 3 1 3v1l4 7a165 165 0 0 1 12 41v8l1 26"></path>
    <g class="st3">
      <path class="st4"
        d="M357 267l2-3 2-3-2-7c0-2-1-4-3-5l-3-1-4-1h4l3 1 3 3 1 3 1 4v3c0 2-1 3-2 3l-2 3z"></path>
    </g>
    <g class="st3">
      <path class="st4" d="M520 122l2 4 2 3 1 1h1l2 1h4-5-2l-1-1h-1l-2-4-1-4z"></path>
    </g>
  </g>
  <g id="shift-option-right" class="st0">
    <path class="st1"
      d="M350 380l-6-10-10-12-5-7-3-9-1-17-1-8-5-19a35 35 0 0 1 2-14l4-15v-5l1-9 1-9 4-3 7 1 6 6 3 7a62 62 0 0 1 4 20l-1 12 1 2v2l2 7a58 58 0 0 0 2-29l-5-36-3-14-2-11v-13l-2-13v-23c0-3 1-7 4-10l5-3c4 0 7 2 7 3 3 1 4 4 4 5l5 22 2 16 5 18 2 11 4 15 3 16h5l-3-17-4-19-1-4-3-11-2-8a308 308 0 0 1-4-36c0-3 2-8 7-10 4-2 8-1 11 1l3 3 1 4 2 5 1 10a72 72 0 0 0 7 21l4 8 4 14 3 16 5 16c2 3 2 6 5 7h4l3-3 3-5-8-12c-5-5-7-5-10-10-2-3-4-7-4-12 1-1 2-7 7-9 4-1 8 1 8 1l3 2 4 4 7 4 4 1 6 2 8 2 8 5 4 4 1-13 2-15c0-8 1-10 2-13l6-7c1-1 4-3 7-3s6 2 7 4l1 3v24l-2 14-1 23-2 10-2 12a285 285 0 0 0-4 40l2 26-1 26a335 335 0 0 0-4 21H350z"></path>
    <path class="st2"
      d="M350 380a132 132 0 0 0-16-22l-5-7-3-9-1-17-1-8-5-19a35 35 0 0 1 1-14l5-15v-14l2-10 4-2c3-1 6 1 7 1l6 6 6 16 1 11-1 12 1 4 2 7a58 58 0 0 0 2-30l-6-35-3-14-1-11v-14l-2-12c-2-9-2-16 0-24 0-2 1-6 4-9l5-3c4 0 6 2 7 2 3 2 4 5 4 6l5 22 2 16 7 29 4 14 3 17h5l-3-17-4-19-1-4-3-11a308 308 0 0 1-6-45c0-2 1-7 7-9 4-2 8-1 11 1l3 3 1 4 2 4 1 11a72 72 0 0 0 7 21l4 7 4 15 3 16 5 15c2 4 2 7 5 8h2M489 285l-2 22 2 25-1 27a335 335 0 0 0-4 21"></path>
    <path class="st5"
      d="M427 254h2l3-3 3-5-8-12-10-10c-2-3-4-7-4-12 1-1 2-7 7-9 4-2 8 1 8 1l8 6 6 4h5l13 5 8 4 4 5 1-13 2-16 3-12 5-8 7-2c3 0 6 2 7 4l1 3v17l-2 21-1 23-4 22-2 18"></path>
    <path class="st5" d="M464 274l1-8 6-18 1-20M439 240l-4 5"></path>
    <path class="st2" d="M346 327a249 249 0 0 1 7-27"></path>
    <g class="st3">
      <path class="st4" d="M329 266l4-4 1-1 1-1v-3-8-1l-2-2 2 1 1 1v12l-1 1-1 1-5 4z"></path>
    </g>
    <g class="st3">
      <path class="st4" d="M432 209l-4 2-4 2-1 1h-1l-2-1-3-3 4 2 2 1v1s0-1 0 0v-1h1l2-2 2-1 4-1z"></path>
    </g>
    <g class="st3">
      <path class="st4" d="M487 180v5l1 4 4 2 2 1h2l-1 1h-1l-3-1-2-1-2-1-1-3v-2l1-5z"></path>
    </g>
  </g>
  <g id="option-right" class="st0">
    <path class="st1"
      d="M489 282c0-10-4-25-5-28-2-4-4-6-6-7l-6-3-4-2-8-3h-5l-5-7-4-4-1-2c-3-6-5-11-8-14l-3-5-4-3c-3-2-6-1-6-1-5 1-8 5-8 9v4l1 8 8 21 2 5 1 1v2a124 124 0 0 0-4 12l-6 5h-2l-2-1v-6-6-27a113 113 0 0 0-1-20c-2-14-4-26-3-38a81 81 0 0 0-3-20l-4-5c-5-3-10-1-10 0-4 1-6 5-7 8l-1 9-1 21v14l-1 21a416 416 0 0 0 1 35v4l-1 3-6-1c-1 0-2 0-3-2l-1-2-2-23-2-13-2-12-1-13-1-22-1-12-3-8-4-5c-4-2-8 0-8 0l-4 4c-3 4-3 9-3 10-1 4-2 8-2 23l1 18-1 14v12l2 14 2 31c0 2 0 6-2 11l-2 7-8 11-1-14-1-2-1-4 1-18s-2-15-9-25c-1-1-2-3-5-4-1-1-4-2-7-1-1 0-4 1-5 5v12l-1 9c0 4-1 5-3 10l-2 17 1 9 2 17a192 192 0 0 1 0 27l1 3 7 14 8 20h140l5-17c4-16 5-24 10-39l2-8 15-27v-6zm-27-4l-2 5-2 4c-1 2-1 3-3 3-2 2-4 2-5 1l12-32 1 3v3l1 6 1 4-3 3z"></path>
    <path class="st2"
      d="M317 380l-8-21c-3-4-8-15-8-17v-5-22l-2-17-1-9 2-16c2-6 3-6 3-11l1-9v-12c0-3 4-5 5-5 3-1 6 1 7 1 3 1 4 3 5 5 7 9 9 24 9 24l-1 19a15 15 0 0 1 2 5l1 15 8-12 2-7c2-5 1-8 1-10l-1-31-2-15v-12l1-13-1-18 1-23c1-2 1-6 4-10l4-4c0-1 4-2 8 0l4 5c2 2 2 5 3 8l1 11 1 22 1 14 2 12 2 12a2765 2765 0 0 0 3 26l3 2h6l1-7-1-15v-20l1-21v-13l1-22 1-9c1-2 3-6 7-8 0 0 5-3 10 0l4 6 2 8 1 11 3 38 1 10v10c-1 21-1 38 1 39l1 2M455 239h5l8 3 4 1 6 4c2 1 5 3 6 7 1 3 5 18 5 28v6l-15 27-2 8c-5 15-6 23-10 39l-5 18"></path>
    <path class="st2" d="M462 259l1 3 1 9 1 4-3 4-4 9-3 3-5 1"></path>
    <path class="st5"
      d="M450 292l12-33v-7l-2-5a132 132 0 0 0-10-15l-4-4-1-2c-3-6-5-11-8-14-1-3-6-7-7-8-3-2-6-1-6-1-5 1-8 5-8 9v4l1 8 8 21 2 6 1 2-3 6-1 6-6 5h-2"></path>
    <path class="st2" d="M323 326l3-10 7-12"></path>
    <g class="st3">
      <path class="st4"
        d="M306 259l3-1 2-1 1-1 2-3v-1-3-3-2-1l-1-1-3-2-3-1 4 1 3 2v1l1 1v9l-2 4-2 1h-2l-3 1z"></path>
    </g>
    <g class="st3">
      <path class="st4" d="M436 213l-4 2h-8l-2-2h-1v-1l-2-2a14 14 0 0 0 6 4h7l4-1z"></path>
    </g>
  </g>
  <g id="option-left" class="st0">
    <path class="st1"
      d="M328 301c0-9-8-17-11-26l-5-20c-2-2-6-6-12-2s-9 20-9 28c0 9 1 16 4 19-2 2 0 21-2 23s-11-23-12-27c-2-5-5-18-5-35l-1-39-1-50c-1-6-3-13-5-15-2-3-12-11-18 2-7 13-3 38-4 48s-3 12-3 19l-1 40c-3 0-5 3-7-1a105 105 0 0 1-8-35c-1-5 2-30 2-31s4-17 3-21-3-5-4-6-2-5-9-4-8 9-8 10-5 4-8 13l-4 17s-5-3-10-3c-6-1-9 6-9 8-1 1-11 9-11 15-3 3-10 16-11 20-4 0-18 3-21 8-4 5-9 20-9 34 1 13 16 28 19 34s5 11 7 23c2 11 9 29 9 34h149l12-22c3-5 0-25 0-29l3-29zm-163-5c-3-2-4-6-5-8 0-2-4-4-4-6-1-2 1-9 2-7l12 22c0 1-3 1-5-1zm36-20c-2-1-6-2-7-5-1-4 0-12-6-17 3-4 8-15 8-18v2l6 35c0 3 1 4-1 3z"></path>
    <path class="st2"
      d="M313 381l12-22c3-4 0-25 0-29l3-29c0-9-8-17-11-26l-5-20c-2-2-6-6-12-2s-9 20-9 28c0 9 1 16 4 19-2 2 0 21-2 23s-11-23-12-27c-2-5-5-18-5-35l-1-39-1-50c-1-6-3-13-5-15-2-3-12-11-18 2-7 13-3 38-4 48s-3 12-3 19l-1 40c-3 0-5 3-7-1a105 105 0 0 1-8-35c-1-5 2-30 2-31s4-17 3-21-3-5-4-6-2-5-9-4-8 9-8 10-5 4-8 13l-4 17s-5-3-10-3c-6-1-9 6-9 8-1 1-11 9-11 15-3 3-10 16-11 20-4 0-18 3-21 8-4 5-9 20-9 34 1 13 16 28 19 34s5 11 7 23c2 11 9 29 9 34m1-85c-3-2-4-6-5-8 0-2-4-4-4-6-1-2 1-9 2-7l12 22c0 1-3 1-5-1zm36-20c-2-1-6-2-7-5-1-4 0-12-6-17 3-4 8-15 8-18 1-3 0-2 0 0l6 37c0 3 1 4-1 3zM200 208s-4 24-4 33"></path>
    <path class="st5"
      d="M198 207l-8-2c-6-1-9 6-9 8-1 1-11 9-11 15-3 3-10 17-11 20-2 3-5 9-5 15l4 13 11 22"></path>
    <g class="st3">
      <path class="st4" d="M183 215l4-1 3-1 3-1 2-3-1 3-2 2h-2a24 24 0 0 1-7 1z"></path>
    </g>
    <g class="st3">
      <path class="st4"
        d="M306 254l-2 2-1 3v3l1 3 1 3 1 1 1 1 3 1 3 1a16 16 0 0 1-7-1l-1-1-1-2-1-3-1-3v-1-1-1c1-3 3-4 4-5z"></path>
    </g>
    <path class="st5" d="M201 276c-2-1-6-2-7-5-1-4 0-12-6-17 3-4 7-14 7-17"></path>
  </g>
  <g id="shift-option-left" class="st0">
    <path class="st1"
      d="M271 383c4-7 7-13 17-24 10-12 5-27 7-37l5-24-3-30v-21c-1-2-8-5-13 0-6 6-10 13-12 19s-3 13-3 21-2 6-2 9c-1-4-5-7-3-35 1-28 4-36 4-50 1-14 2-44-1-53-2-9-15-10-18-1-4 9-4 14-5 20s0 21-3 30-3 27-4 33l-3 16h-3l5-32c1-10 2-23 5-34 2-12 2-21 1-25l-3-6c0-1-3-6-9-6s-8 6-9 7l-4 18c-2 13-7 18-9 28-3 11-4 28-7 36l-4 14h-3c-1 0-5-1-5-5l-2-9c0-1 9-7 13-14 4-8 4-13 1-18-3-4-7-4-10-4s-7 4-7 6l-5 5c-1 1-19 1-25 8-6 6-3 20-2 23 0 3 6 16 5 17s-4-2-5-7l-6-16c-3-7-1-28-1-36-1-7-2-11-5-15-4-4-11-6-15 0l-3 19-2 35c0 4-1 9 3 22 5 14 6 20 6 23l3 17-1 34c1 11 6 39 5 42h135z"></path>
    <path class="st2"
      d="M271 383c4-7 7-13 17-24 10-12 5-27 7-37l5-24-3-30v-21c-1-2-8-5-13 0-6 6-10 13-12 19s-3 13-3 21-2 6-2 9c-1-4-5-7-3-35 1-28 4-36 4-50 1-14 2-44-1-53-2-9-15-10-18-1-4 9-4 14-5 20s0 21-3 30-3 27-4 33l-3 16h-3l5-32c1-10 2-23 5-34 2-12 2-21 1-25l-3-6c0-1-3-6-9-6s-8 6-9 7l-4 18c-2 13-7 18-9 28-3 11-4 28-7 36l-4 14h-3c-1 0-5-1-5-5l-2-9c0-1 9-7 13-14 4-8 4-13 1-18-3-4-7-4-10-4s-7 4-7 6l-5 5c-1 1-19 1-25 8-6 6-3 20-2 23 0 3 6 16 5 17s-4-2-5-7l-6-16c-3-7-1-28-1-36-1-7-2-11-5-15-4-4-11-6-15 0l-3 19-2 35c0 4-1 9 3 22 5 14 6 20 6 23l3 17-1 34c1 11 6 39 5 42"></path>
    <path class="st5"
      d="M194 256c-1 0-5-1-5-5l-2-9c-1-1 8-7 13-14 4-7 4-13 1-17-3-5-7-5-10-5s-7 4-7 6l-5 5c-1 1-19 1-25 8-6 6-3 20-2 23l5 18c0 2-4-3-5-8l-6-16c-3-7-1-28-1-36-1-7-2-10-6-15-4-4-10-6-14 0l-3 19-2 36c0 5-1 8 3 22 5 13 6 19 6 22"></path>
    <path class="st2" d="M277 337l-5-22-5-19"></path>
    <path class="st5" d="M183 235l4 7"></path>
    <g class="st3">
      <path class="st4" d="M126 204l5-2 2-4v-2-2l-3-4 2 1 2 2v6l-1 2-2 2-5 1z"></path>
    </g>
    <g class="st3">
      <path class="st4" d="M186 213h3l4 1h1l2-1 3-2-3 3-2 1h-1l-4-1-3-1z"></path>
    </g>
    <g class="st3">
      <path class="st4"
        d="M294 248l-3 1-2 3-1 2v3a131 131 0 0 0 1 7l1 1h4-3-2v-1h-1v-7l-1-3 2-3c1-2 3-3 5-3z"></path>
    </g>
  </g>
  <g id="b" class="st0">
    <path class="st1"
      d="M217 381c3-2 13-10 18-16l29-26c2-5 7-24 14-38l7-18c2-1 3-7 4-13l13-27c0-5-11-7-14-6 0 0 7-12 13-18 5-6 10-18 12-22s1-16-6-19-16 5-19 10l-10 14-33 34c-6 7-12 13-19 14-7 2-15-5-13-21 6-11 8-18 8-22 3-1 12-9 15-15 5-6 12-21 7-29-2-9-13-8-16-6s-6 5-8 10c-3 3-4 8-5 9l-12 6-8 6c-1 0 17-15 18-23s-2-15-9-15-12 7-14 8l-8 5-4-3c-1-2-4-4-8-1l-6 7c-1 1-12 12-15 19l-9 21c-2 2-5 6-7 16s-4 9-5 26-6 19-7 29 1 16-1 25l-3 21c0 5 1 16-5 30s-12 25-15 28h121z"></path>
    <path class="st2"
      d="M217 381c3-2 13-10 18-16l29-26c2-5 7-24 14-38l7-18c2-1 3-7 4-13l13-27c0-5-11-7-14-6 0 0 7-12 13-18 5-6 10-18 12-22s1-16-6-19-16 5-19 10l-10 14-33 34c-6 7-12 13-19 14-7 2-15-5-13-21 6-11 8-18 8-22 3-1 12-9 15-15 5-6 12-21 7-29-2-9-13-8-16-6s-6 5-8 10c-3 3-4 8-5 9l-12 6-8 6c-1 0 17-15 18-23s-2-15-9-15-12 7-14 8l-8 5-4-3c-1-2-4-4-8-1l-6 7c-1 1-12 12-15 19l-9 21c-2 2-5 6-7 16s-4 9-5 26-6 19-7 29 1 16-1 25l-3 21c0 5 1 16-5 30s-12 25-15 28"></path>
    <path class="st2"
      d="M137 258c2-10 6-54 8-59s9-8 12-12l10-10c4-2 10-9 14-13M167 253c4-5 6-12 7-19l8-30c3-6 4-13 11-16M239 334c2-6 4-11 4-17-1-6-2-11-1-15 0-3 7-17 8-20"></path>
    <path class="st5"
      d="M250 282l14-16 24-30s7-11 13-17c5-6 10-18 12-23s1-15-6-18-16 5-19 9l-10 15-33 33c-6 7-12 14-19 15"></path>
    <g class="st3">
      <path class="st4"
        d="M297 240c-3 0-6 1-8 3a15 15 0 0 0-6 10v4l3 4 4 2c-3-1-6-2-8-5l-1-5 2-4 5-7 4-2h5z"></path>
    </g>
    <g class="st3">
      <path class="st4" d="M311 190l-5 3a10 10 0 0 1-9-2l-2-3 1-4 1-2-1 3v2l2 3 2 1 6 1 3-1 2-1z"></path>
    </g>
  </g>
  <g id="v" class="st0">
    <path class="st1"
      d="M278 222c1-1 9-9 14-28 5-20-16-20-23-9s-13 21-22 30l-26 30-11 12c-1 0-8-4-9-6s0-11 1-15l11-27c4-1 11-7 13-11l7-10c2-2 12-20 6-28-2-9-13-6-15-4l-7 10-5 10c-4 1-17 9-22 14-4 4 0-4 2-5 1-1 12-10 15-18 4-8 0-11 0-11s0-7-7-6-13 10-14 10-3-1-8 5l-7-4c-1-1-6-3-7-1-2 2-3 7-4 9l-8 13-5 12c-1 2-7 7-8 10l-2 12-4 11c-2 2-6 8-9 27-3 20-10 19-9 40 0 20 0 52-2 60s-5 18-10 26h113l12-11 25-26c9-7 11-10 12-14s3-21 9-34c5-14 7-20 6-22l2-16 1-7c1-1 8-16 7-21-1-4-13-4-15-2l3-5zm-36 67l-7 8-2-1c2-12 10-25 16-29-4 7-6 22-7 22z"></path>
    <path class="st2"
      d="M216 380l12-11 25-26c8-7 10-10 12-14 1-4 3-21 8-34 6-14 8-20 7-22l2-16 1-7c1-1 8-16 7-21-1-4-13-4-15-2l3-5c1-1 9-9 14-29s-16-19-23-8-13 21-22 30l-26 30c-1 2-9 11-11 11s-8-3-9-5 0-11 1-15l11-27c4-1 11-7 13-11l7-10c2-2 12-20 6-28-2-9-13-6-15-4l-7 10-5 10c-4 1-17 9-22 14-4 4 0-4 2-5 1-1 12-10 15-18 4-8 0-11 0-11s0-7-7-6-13 10-14 10-3-1-8 5l-7-4c-1-1-6-3-7-1l-4 9-8 13-5 12c-1 2-7 7-8 10l-2 12-4 11c-2 2-5 8-8 27-3 20-11 19-10 40 0 20 0 52-2 60s-5 18-10 26"></path>
    <path class="st2" d="M235 297l7-8c1 0 3-15 7-22-6 4-14 17-16 29l2 1z"></path>
    <path class="st5"
      d="M233 296c1-5 4-16 12-25l18-24 15-25c1-1 9-9 14-29s-16-19-23-8-13 21-22 30l-27 30c-2 2-11 15-15 16"></path>
    <path class="st2"
      d="M124 267c1-1 5-3 7-11 1-8 0-22 2-29M147 194c6-5 10-12 16-15 5-3 7-5 8-7l7-7M154 260c2-3 7-10 10-25s11-28 11-31c1-3 4-8 14-13"></path>
    <g class="st3">
      <path class="st4"
        d="M275 182l-2 3v3l3 2 3 1 3 1h4l2-2 3-3-2 3-3 3h-4l-3-1-4-1-1-1-1-2-1-1 1-2 2-3z"></path>
    </g>
    <g class="st3">
      <path class="st4" d="M287 227l-4 2-3 3-4 6-1 4 1 4 2 3 3 2-6-5-1-4 1-4a18 18 0 0 1 12-11z"></path>
    </g>
  </g>
  <g id="c" class="st0">
    <path class="st1"
      d="M238 380c3-4 18-31 34-42 15-12 16-15 25-21 8-5 14-10 15-29 1-18 6-30 5-33l1-11v-10l-1-11c0-2 6-18 5-24-7-6-18 0-24 9-7 8-13 23-10 34-3 2-3 10-5 15-1 4-2 8-1 9-2 0-6 6-7 9-2-1-17-5-25-2 1-7 0-22 12-53 11-30 13-39 13-48-1-9-2-14-6-17-4-4-12-5-15 2-4 4-5 21-6 22l-10-3c-4 0-8 4-8 4s-5-3-8-2c-4 0-8-3-13-3 5-3 15-13 11-20 1-6-9-6-12-5s-7 5-9 7c-2-1-5-1-17 8-2-6-7-9-11-10s-9-1-9 2c-1 4 0 10-3 18l-5 16-4 19-2 11s-4 1-7 11c-2 9 0 12-5 22-4 11-6 16-6 25 0 8 9 22 10 26l8 25c1 2 6 11 0 30-5 19-7 20-7 20h97z"></path>
    <path class="st2"
      d="M238 380c3-4 18-31 34-42 15-12 16-15 25-21 8-5 14-10 15-29 1-18 6-30 5-33l1-11v-10l-1-11c0-2 6-18 5-24-7-6-18 0-24 9-7 8-13 23-10 34-3 2-3 10-5 15-1 4-2 8-1 9-2 0-6 6-7 9-2-1-17-5-25-2 1-7 0-22 12-53 11-30 13-39 13-48-1-9-2-14-6-17-4-4-12-5-15 2-4 4-5 21-6 22l-10-3c-4 0-8 3-8 3s-5-2-8-1c-4 0-8-3-13-3 5-3 15-13 11-20 1-6-9-6-12-5l-9 6c-2 0-5-1-17 9-2-6-7-9-11-10s-9-1-9 2c-1 4 0 10-3 18l-5 16-4 19-2 11s-4 1-7 11c-2 9 0 12-5 22-4 10-6 16-6 24 0 9 9 23 10 27l8 25c1 2 6 11 0 30-5 18-7 20-7 20"></path>
    <path class="st5"
      d="M247 178l-9-2c-4 0-8 3-9 3s-4-2-7-1c-4 0-8-3-13-3s-11-3-20 17-9 35-13 42-9 10-9 10"></path>
    <path class="st2" d="M142 257l5-15 1-21"></path>
    <path class="st5" d="M218 230c0-4 2-10 5-14s7-14 7-19"></path>
    <path class="st2"
      d="M154 190c1-4 9-8 11-10 2-1 10-11 17-15M206 248c3-3 11-10 15-22 4-13 10-21 11-23 2-3 6-11 10-14s7-9 7-12"></path>
    <g class="st3">
      <path class="st4" d="M319 200l-3 2-2 3-3 6a13 13 0 0 0 0 6l1 3 2 3-4-5-1-4 1-4 3-6 6-4z"></path>
    </g>
    <g class="st3">
      <path class="st4" d="M232 181h6l4 1h1l2-1-2 1-1 1-4-1h-3l-3-1z"></path>
    </g>
  </g>
  <g id="x" class="st0">
    <path class="st1"
      d="M236 381c3-6 9-19 15-24s29-36 36-42 11-12 11-21l1-18a347 347 0 0 0 0-45c-2-5-1-8-2-11 0-3 3-18 1-24-5-5-20 1-26 19s-4 26-2 28c-2 1-2 10-3 14l-1 9c-2 0-4 7-4 9s-3-3-10-3c0-8-1-21 9-45 10-25 7-31 9-36 2-4 6-15 5-27s-7-17-13-18c-5 0-10 8-11 11s-2 17-4 21l-14 31-13 29c-1 1-6-4-1-17l7-25c3-2 9-10 12-19 3-8 8-21 1-28-7-6-15-1-17 2l-7 16s-7 2-12 9c-4 0-7 4-7 4s-3-2-9-1c0-4-2-25-15-24-4-3-8 1-9 6l1 26c-3 0-11 3-13 12s0 40-1 49c0 9-9 17-9 30-1 13 1 49 2 56 1 8 1 31-9 47h102z"></path>
    <path class="st2"
      d="M236 381c3-6 9-19 15-24s29-36 36-42 11-12 11-21l1-18a347 347 0 0 0 0-45c-2-5-1-8-2-11 0-3 3-18 1-24-5-5-20 1-26 19s-4 26-2 28c-2 1-2 10-3 14l-1 9c-2 0-4 7-4 9s-3-3-10-3c0-8-1-21 9-45 10-25 7-31 9-36 2-4 6-15 5-27s-7-17-13-18c-5 0-10 8-11 11s-2 17-4 21l-14 31-13 29c-1 1-6-4-1-17l7-25c3-2 9-10 12-19 3-8 8-21 1-28-7-6-15-1-17 2l-7 16s-7 2-12 9c-4 0-7 3-7 3s-3-1-9 0c0-4-2-25-15-24-4-2-8 1-9 6l1 26c-3 0-11 3-13 12s0 40-1 49c0 9-8 17-9 30s1 49 2 56c1 8 1 31-9 47"></path>
    <path class="st5" d="M195 179h-8c-9 1-11 6-15 6-9 1-19 5-21 14s0 40-1 50"></path>
    <path class="st2" d="M170 244c4-3 7-6 10-22s9-29 10-33 5-9 8-11"></path>
    <g class="st3">
      <path class="st4"
        d="M296 198c-3 0-5 2-6 4l-2 7v4l1 4c1 2 4 3 6 3h-4l-3-3-1-4v-2-2l1-4a12 12 0 0 1 4-6l4-1z"></path>
    </g>
  </g>
  <g id="z" class="st0">
    <path class="st1"
      d="M245 381c12-11 29-34 37-40s7-21 10-33c4-11 12-29 10-32 3-1 3-6 4-11 1-4 4-7 3-9 3-3 12-17 12-20s-7-10-22-3-23 23-24 26l-1 7c-1 1-2 1-5 10s-4 16-8 18l2-35c1-9 7-33 10-44 2-11 1-21 2-29s1-24-4-30c-5-7-12-7-17 0-5 6-4 23-5 30a411 411 0 0 0-19 60c-1 1-4 0-4-5s10-44 11-47l4-19c2-3 5-21-1-23-1-3-3-5-9-5-7-1-10 3-10 5l-4 5c0-1-3-6-8-7-5 0-8 2-10 5-3 1-7 5-13 13l-10 16c-3 3-8 8-10 12-2 5-8 21-10 22s-3 2-4 9l-5 16-1 13c-1 5-2 13-9 24s-1 28-5 47c-5 19 1 32-9 54h122z"></path>
    <path class="st2"
      d="M245 381c12-11 29-34 37-40s7-21 10-33c4-11 12-29 10-32 3-1 3-6 4-11 1-4 4-7 3-9 3-3 12-17 12-20s-7-10-22-3-23 23-24 26l-1 7c-1 1-2 1-5 10s-4 16-8 18l2-35c1-9 7-33 10-44 2-11 1-21 2-29s1-24-4-30c-5-7-12-7-17 0-5 6-4 23-5 30a411 411 0 0 0-19 60c-1 1-4 0-4-5s10-44 11-47l4-19c2-3 5-21-1-23-1-3-3-5-9-5-7-1-10 3-10 5l-4 5c0-1-3-6-8-7-5 0-8 2-10 5-3 1-7 5-13 13l-10 16c-3 3-8 8-10 12-2 5-8 21-10 22s-3 2-4 9l-5 16-1 13c-1 5-2 13-9 24s-1 28-5 47c-5 19 1 32-9 54"></path>
    <path class="st5" d="M175 185c-3 3-7 7-9 12-3 4-8 20-10 21s-3 3-4 10l-5 15-2 13"></path>
    <path class="st2"
      d="M157 254c2-2 3-4 3-9a389 389 0 0 1 6-41l12-22M182 254c5-4 9-11 13-38s9-27 11-32 4-10 8-14c0-5 0-9 3-13"></path>
    <g class="st3">
      <path class="st4"
        d="M318 236h-4l-3 2-2 2-3 2a14 14 0 0 0-2 6 10 10 0 0 0 2 7l-2-3-1-4 1-3 1-3 6-5 7-1z"></path>
    </g>
  </g>
  <g id="g" class="st0">
    <path class="st1"
      d="M295 214c-3-3-13 1-14 1l10-23c4-7 11-21 8-36-4-14-16-7-20-2-5 5-10 22-13 26l-21 29c-6 9-14 24-17 26-2 1-9 1-10-3-1-5-1-11 1-19l5-18c0-1 7-2 12-15 6-8 7-22 3-24-1-3-11-12-20 0l-3 4-3-8c-3-3-13-4-17 3-4 0-12 7-12 9-2-4-5-6-6-7-2-3-6-4-8-3l-6 9c-3 1-11 12-16 21-5 10-7 18-9 20-1 2-4 6-6 24s-1 26-5 36c-4 11-2 25-2 36v41c-2 10-8 31-14 40h108l20-20c4-3 20-26 27-32 8-7 12-12 14-29 1-16 6-20 8-30 3-7 3-14 2-23v-9c1-4 6-14 4-24zm-36 45l-3 10c0 2-3 4-2 8l-3 2c0-4 4-26 9-25s0 2-1 5z"></path>
    <path class="st2"
      d="M220 381c4-5 15-16 20-19 4-4 20-27 27-33 8-7 12-12 14-29s6-20 8-30c3-7 3-14 2-23v-9c1-4 6-14 4-24-3-3-14 1-14 1s6-16 10-23 11-21 8-35c-4-15-16-8-20-3-5 5-10 22-13 26l-21 29c-6 9-14 24-17 26-2 2-9 1-10-3-1-5-2-11 1-19l5-18s7-2 12-15c6-8 7-22 3-23-1-4-11-13-20-1l-3 5-3-9c-3-3-14-4-17 3-4 1-12 7-12 9l-6-7c-2-3-6-4-8-3l-6 9c-3 2-11 12-16 21-5 10-7 18-9 20-1 2-4 6-6 24-3 19-1 26-5 36-4 11-2 25-2 37v40c-2 10-8 32-14 40"></path>
    <path class="st2"
      d="M146 244c1-11 3-43 7-51 3-9 8-8 15-16s10-5 16-14M176 238l9-40c1-8 5-19 13-22 6-5 11-7 13-8l5-8"></path>
    <g class="st3">
      <path class="st4" d="M292 215l-3 2-2 3-3 6 1 6c0 2 2 4 4 6l-3-2-2-3-1-4v-4l4-6 5-4z"></path>
    </g>
    <g class="st3">
      <path class="st4" d="M297 159l-4 6a8 8 0 0 1-7 1c-2-1-4-2-5-5l-1-3 1-3v6l5 4 6-1 3-2 2-3z"></path>
    </g>
    <path class="st2" d="M251 279c0-5 4-26 9-25s0 2-1 5l-3 10c0 2-3 4-2 8l-3 2z"></path>
    <path class="st5"
      d="M257 256l24-41 10-23c4-7 11-21 8-36-4-14-16-7-20-2-5 5-10 21-13 26l-21 29c-6 9-14 24-17 26"></path>
  </g>
  <g id="f" class="st0">
    <path class="st1"
      d="M205 380c3-2 6-7 13-12s27-29 42-43 6-15 16-45c11-29 6-29 2-43 0 0 3-12 2-22-8-6-20 1-27 18s-2 23-2 23-4 3-7 15-3 10-4 8l3-22c2-6 5-20 11-32s9-23 11-29 7-12 8-26c2-15-2-15-2-15s-6-13-18 0c-10 14-3 18-18 36s-20 42-23 44 2-18 6-28c3-9 6-13 6-13s12-7 16-22c5-15 0-17 0-17s0-6-9-6-9 6-9 6-2 0-7 8l-3 1s2-3 2-8c-1-5-4-7-8-8-5-1-14 6-14 6s-6 1-10 6l-4-5c-3-4-7-4-9-2l-4 6s-7 7-15 23c-7 16-11 21-13 25l-6 17c-3 6 0 14-8 33s-4 26-6 46c-1 19-1 36-5 48l-14 30h107z"></path>
    <path class="st2"
      d="M205 380c3-2 6-7 13-12s27-29 42-43 6-15 16-45c11-29 6-29 2-43 0 0 3-12 2-22-8-6-20 1-27 18s-2 23-2 23-4 3-7 15-3 10-4 8l3-22c2-6 5-20 11-32s9-23 11-29 7-12 8-26c2-15-2-15-2-15s-6-13-18 0c-10 14-3 18-18 36s-20 42-23 44 2-18 6-28c3-9 6-13 6-13s12-7 16-22c5-15 0-17 0-17s0-6-9-6-9 6-9 6-2 0-7 8l-3 1s2-3 2-8c-1-5-4-7-8-8-5-1-14 6-14 6s-6 1-10 6l-4-5c-3-4-7-4-9-2l-4 6s-7 7-15 23c-7 16-11 21-13 25l-6 17c-3 6 0 14-8 33s-4 26-6 46c-1 19-1 36-5 48l-14 30"></path>
    <path class="st5"
      d="M243 257c2-6 5-20 11-32s9-23 11-29 7-12 8-26c1-15-2-15-2-15s-7-13-18 0c-10 14-3 18-18 36s-20 42-24 44"></path>
    <path class="st2"
      d="M141 240c4-6 5-13 7-27s2-27 6-31c4-5 10-7 15-13s11-5 13-9M167 237c4-5 9-12 14-32 5-19 11-28 16-30 4-2 13-10 19-11s9 1 9 1"></path>
    <g class="st3">
      <path class="st4" d="M253 158l2 2 2 1a16 16 0 0 0 10 0l2-1 1-2-1 2-2 2a13 13 0 0 1-13-2l-1-2z"></path>
    </g>
    <g class="st3">
      <path class="st4"
        d="M277 215a14 14 0 0 0-6 10v3a16 16 0 0 0 2 6l2 3-4-5-1-7a12 12 0 0 1 2-6l5-4z"></path>
    </g>
  </g>
  <g id="d" class="st0">
    <path class="st1"
      d="M206 381c5-5 5-7 17-17s24-26 34-37c10-10 12-13 13-24 1-12 8-32 11-41 3-8-4-25-4-25s4-10 4-23c-7-5-20-1-28 18s-2 23-2 23-4 5-7 11-4 13-4 13 5-33 14-52c8-18 10-30 15-39 4-10 7-28 3-32-1-5-10-11-18-2s-8 20-11 24l-14 21-17 36c-2 3-1-1-1-3 0-1 7-26 14-37 8-9 9-8 15-20 6-11 4-18 1-21-1-4-12-12-20 0-3 1-7 10-7 10l-2 1s2-4 2-9-5-8-10-8-12 6-12 6-7 2-11 6c-1-5-7-9-9-9-3-1-6 5-7 6 0 2-9 10-14 22l-12 24c-2 4-4 4-5 14-2 10-4 6-5 18s-12 25-11 40c1 16-2 23-2 30s0 26-4 41c-3 16-16 34-16 34h110z"></path>
    <path class="st2"
      d="M206 381c5-5 5-7 17-17s24-26 34-37c10-10 12-13 13-24 1-12 8-32 11-41 3-8-4-25-4-25s4-10 4-23c-7-5-20-1-28 18s-2 23-2 23-4 5-7 11-4 13-4 13 5-33 14-52c8-18 10-30 15-39 4-10 7-28 3-32-1-5-10-11-18-2s-8 20-11 24l-14 21-17 36c-2 3-1-1-1-3 0-1 7-26 14-37 8-9 9-8 15-20 6-11 4-18 1-21-1-4-12-12-20 0-3 1-7 10-7 10l-2 1s2-4 2-9-5-8-10-8-12 6-12 6-7 2-11 6l-3-6-6-3c-3-1-6 5-7 6 0 2-9 10-14 22l-12 24c-2 4-4 4-5 14-2 10-4 6-5 18s-12 25-11 40c1 16-2 23-2 30s0 26-4 41c-3 16-16 34-16 34"></path>
    <path class="st5"
      d="M211 235c0-3 7-29 14-40 8-9 9-8 15-20 6-11 4-18 1-21-1-4-12-11-20 0-3 1-7 10-7 10"></path>
    <path class="st2" d="M141 239c3-4 5-10 6-19 1-10 3-30 5-35 3-5 9-7 11-10l10-9c4-1 9-7 9-7"></path>
    <path class="st5" d="M167 236c4-3 9-15 15-33 5-18 9-26 16-29s10-10 26-9"></path>
    <g class="st3">
      <path class="st4" d="M221 157l3 1h2l6 1h5l2-1 1-3v3l-3 1-5 1-6-1a105 105 0 0 1-4-1l-1-1z"></path>
    </g>
    <g class="st3">
      <path class="st4" d="M278 215l-5 4-2 6 1 6a14 14 0 0 0 3 5l-4-5-1-3v-3a11 11 0 0 1 5-8l3-2z"></path>
    </g>
  </g>
  <g id="s" class="st0">
    <path class="st1"
      d="M206 380c3-3 1-5 11-12 9-7 26-25 31-32s18-17 19-20c2-4 3-20 8-32s8-25 7-30l-5-17c1-1 3-13 3-23-4-4-19-3-27 17s-3 25-3 25-5 6-8 18-3-5 3-23 15-40 17-44 2-11 6-19 5-17 5-21c1-4 0-10-2-11-1-3-2-7-9-7-7-1-10 7-10 7s-3 2-6 11-2 12-13 25c-10 14-19 41-20 42s-4-2 3-21c6-19 7-18 8-19s11-8 16-23c5-14 0-17 0-17s-1-6-9-6c-9-1-10 6-10 6s-4 3-7 9l-2 1s2-4 2-10c0-5-7-7-11-7s-12 6-13 7-4 1-8 5c-2-3-4-5-8-7-3-2-6-1-7 0l-3 6s-3 1-11 15-10 22-13 25c-2 3-6 7-6 11 0 5-5 13-5 20l-12 36c-2 7-1 39-2 57-2 19-3 27-7 34l-12 24h110z"></path>
    <path class="st2"
      d="M206 380c3-3 1-5 11-12 9-7 26-25 31-32s18-17 19-20c2-4 3-20 8-32s8-25 7-30l-5-17c1-1 3-13 3-23-4-4-19-3-27 17s-3 25-3 25-5 6-8 18-3-5 3-23 15-40 17-44 2-11 6-19 5-17 5-21c1-4 0-10-2-11-1-3-2-7-9-7-7-1-10 7-10 7s-3 2-6 11-2 12-13 25c-10 14-19 41-20 42s-4-2 3-21c6-19 7-18 8-19s11-8 16-23c5-14 0-17 0-17s-1-6-9-6c-9-1-10 6-10 6s-4 3-7 9l-2 1s2-4 2-10c0-5-7-7-11-7s-12 6-13 7-4 1-8 5c-2-3-4-5-8-7-3-2-6-1-7 0l-3 6s-3 1-11 15-10 22-13 25c-2 3-6 7-6 11 0 5-5 13-5 20l-12 36c-2 7-1 39-2 57-2 19-3 27-7 34l-12 24"></path>
    <path class="st5"
      d="M141 239c3-6 7-30 8-38s2-18 6-21c4-2 9-7 14-12 5-4 9-5 13-9s7-4 8-5 9-7 13-7 11 2 11 8c0 5-2 9-2 9"></path>
    <g class="st3">
      <path class="st4" d="M192 156l5 1 6 2h2l2-1 5-2-4 3-3 1h-3l-5-3h-2l-3-1z"></path>
    </g>
    <path class="st2" d="M166 236c2-1 7-4 10-17 3-12 12-36 15-41s6-4 16-10 17-3 17-3"></path>
    <g class="st3">
      <path class="st4" d="M277 215l-2 2-2 2-2 6-1 6 1 3 3 2-3-2-1-3a14 14 0 0 1 2-12l5-4z"></path>
    </g>
  </g>
  <g id="a" class="st0">
    <path class="st1"
      d="M205 380l20-19c13-11 18-21 35-37s6-18 15-43c10-25 8-29 5-36l-2-8s3-17 2-22-15-4-23 9-11 27-7 32c-2 2-9 16-10 23 2-7 2-24 9-41l17-45c3-9 10-18 6-38-2-4-7-6-10-6-4 1-8 3-10 7l-8 17c-2 9-12 20-15 24s-15 31-17 38-3-6 4-24l9-17c1-1 11-8 16-23 4-14 1-16 0-17-2-2-3-6-11-6s-9 6-9 7c-1 1-5 4-8 9-2 5 2-4 1-7s-2-8-9-10-9 5-14 8l-8 4-5-4c-2-2-7-7-12-1-6 7-16 23-18 30l-10 18-4 8-3 12c-3 5-3 14-5 20l-8 23-2 35c0 4-1 41-6 53l-14 28h109z"></path>
    <path class="st2"
      d="M205 380l20-19c13-11 18-21 35-37s6-18 15-43c10-25 8-29 5-36l-2-8s3-17 2-22-15-4-23 9-11 27-7 32c-2 2-9 16-10 23 2-7 2-24 9-41l17-45c3-9 10-18 6-38-2-4-7-6-10-6-4 1-8 3-10 7l-8 17c-2 9-12 20-15 24s-15 31-17 38-3-6 4-24l9-17c1-1 11-8 16-23 4-14 1-16 0-17-2-2-3-6-11-6s-9 6-9 7c-1 1-5 4-8 9-2 5 2-4 1-7s-2-8-9-10-9 5-14 8l-10 5s0-3-3-5c-2-2-7-7-12-1-6 7-16 23-18 30l-10 18-4 8-3 12c-3 5-3 14-5 20l-8 23-2 35c0 4-1 41-6 53l-14 28"></path>
    <path class="st5" d="M180 158l-2-3c-2-2-7-7-12-1-6 7-16 23-18 30l-10 18-4 8-3 12c-3 5-3 14-5 20"></path>
    <path class="st2"
      d="M141 239l4-10 5-32c1-2 0-14 9-19 8-5 8-8 12-11l12-8M167 236l6-7c2-3 15-46 19-51s20-13 23-14h9"></path>
    <g class="st3">
      <path class="st4"
        d="M277 215l-2 2a9 9 0 0 0-4 5v3a33 33 0 0 0 2 9l2 2-3-2-1-3-1-6v-2-2l2-3c1-1 3-3 5-3z"></path>
    </g>
    <g class="st3">
      <path class="st4" d="M176 155l1 3v3l-5 4-2 1-3-1-2-2-1-1v-1a9 9 0 0 0 3 3h5l4-4 1-2-1-3z"></path>
    </g>
  </g>
  <g id="neutral-left" class="st4">
    <path class="st1"
      d="M231 382l13-14c6-6 19-27 22-32 4-4 14-15 16-20 3-5 0-22 0-28s3-30 1-37c-1-6-4-9-6-14l-5-7c-2-1-1-13 0-15l1-12c0-2 0-11 3-16s0-23-3-29-7-6-11-7-9 4-10 7-3 5-5 26c-2 6-7 11-9 18l-9 31c-1 7-9 17-6 12s3-18 8-35l5-17c0-1 4-4 5-11 2-4 6-21-2-25 0-4-2-6-8-7-7-1-9 0-10 4-3 1-6 9-7 16-2 1-10 10-11 13a482 482 0 0 0-16 54c-1 2-2 4-1-1l10-40c2-5 3-10 10-20s7-15 5-19c-1-3-2-6-8-7s-10 4-10 4-3 1-12 11c-2-4-5-6-5-6s-2-4-7-5c-6-1-8 5-8 7-2 0-6 8-7 16-1 9-3 21-6 28l-4 18-3 19c-1 7-9 27-9 33l-1 32c-1 5-2 22 0 31 1 9 1 18-1 23l-7 20h108z"></path>
    <path class="st2"
      d="M231 382l13-14c6-6 19-27 22-32 4-4 14-15 16-20 3-5 0-22 0-28s3-30 1-37c-1-6-4-9-6-14l-5-7c-2-1-1-13 0-15l1-12c0-2 0-11 3-16s0-23-3-29-7-6-11-7-9 4-10 7-3 5-5 26c-2 6-7 11-9 18l-9 31c-1 7-9 17-6 12s3-18 8-35l5-17c0-1 4-4 5-11 2-4 6-21-2-25 0-4-2-6-8-7-7-1-9 0-10 4-3 1-6 9-7 16-2 1-10 10-11 13a482 482 0 0 0-16 54c-1 2-2 4-1-1l10-40c2-5 3-10 10-20s7-15 5-19c-1-3-2-6-8-7s-10 4-10 4-3 1-12 11c-2-4-5-6-5-6s-2-4-7-5c-6-1-8 5-8 7-2 0-6 8-7 16-1 9-3 21-6 28l-4 18-3 19c-1 7-9 27-9 33l-1 32c-1 5-2 22 0 31 1 9 1 18-1 23l-7 20"></path>
    <path class="st2" d="M152 240c2-3 5-8 5-13 0-4 0-29 6-39l18-23M263 298l-3-6 2-33 9-37"></path>
  </g>
  <g id="t" class="st0">
    <path class="st1"
      d="M221 382c4-4 13-17 19-21s16-13 22-23c7-9 20-19 25-28 4-9 1-23 5-41s5-21-1-28c-5-6-12-11-16-18l9-31c1-7 1-16 3-20l3-13c1-5 2-24-3-32s-12-9-19-1c-6 8-6 23-7 31 0 7-9 21-13 32l-10 25c-1 2-4-1-2-11s1-14 1-14 4-5 3-10c2-1 6-9 6-15s-3-9-5-10c0-2 0-4-8-5s-9 4-9 4-7-1-12 1c-3-1-9-2-14 2-3-1-7 3-7 3s-5-1-9 1c-2-2-7-5-11-4s-5 4-6 4c-2 1-12 3-14 5-2 1-15 24-16 28s0 32 0 37l-1 29v37c-1 16 2 31-1 40s-6 20-17 46h105z"></path>
    <path class="st2"
      d="M221 382c4-4 13-17 19-21s16-13 22-23c7-9 20-19 25-28 4-9 1-23 5-41s5-21-1-28c-5-6-12-11-16-18l9-31c1-7 1-16 3-20l3-13c1-5 2-24-3-32s-12-9-19-1c-6 8-6 23-7 31 0 7-9 21-13 32l-10 25c-1 2-4-1-2-11s1-14 1-14 4-5 3-10c2-1 6-9 6-15s-3-9-5-10c0-2 0-4-8-5s-9 4-9 4-7-1-12 1c-3-1-9-2-14 2-3-1-7 3-7 3s-5-1-9 1c-2-2-7-5-11-4s-5 4-6 4c-2 1-12 3-14 5-2 1-15 24-16 28s0 32 0 37l-1 29v37c-1 16 2 31-1 40s-6 20-17 46"></path>
    <path class="st2"
      d="M160 227c1-5 3-9 3-18l3-33c1-4 4-13 16-16M189 222c4-3 6-6 6-10 2-3 5-31 6-39 2-9 4-17 11-20"></path>
    <path class="st5"
      d="M271 283l-4-8c0-4 0-27 3-38s13-38 14-45 1-16 3-21l3-12c1-5 2-24-3-32s-12-9-19-1c-6 7-6 23-7 31 0 7-9 20-13 31l-10 26-5 9"></path>
    <g class="st3">
      <path class="st4"
        d="M286 130c0 3-2 5-3 7l-1 1-1 1h-5l-4-1-1-1-1-1v-1c-1-3 0-5 1-7l-1 3v4h1v1l2 1 3 1h4c1 1 2 0 2-1l2-3 2-4z"></path>
    </g>
  </g>
  <g id="shift-left" class="st0">
    <path class="st1"
      d="M247 382l18-26 15-28c3-5 7-10 5-22-1-13-3-17-2-35 1-17-2-21-6-29-1-5-2-7-4-8l3-25v-20c1-15-3-26-5-29-1-3-4-6-9-7s-10 3-10 5c-2 1-7 8-4 33-6 14-10 28-11 33s-5 27-6 26 5-22 6-35l6-28c1-6 1-27-6-29-2-5-6-7-11-7-4 0-8 3-8 5-2 1-4 11-4 24-4 5-10 20-17 54 0 0 2-33 6-46 5-13 8-19 5-26 2-3-2-6-6-7-5-2-10 1-11 3-3 1-9 12-12 20-5 9-11 24-13 32s-3 40-4 42c-2 2-4 2-6 0s-2-2-2-6l-3-15-2-19c1-3 5-10 5-18-1-8-6-12-7-13-2-1-3-3-8-2s-7 12-7 12l-7 15-2 10-1 14c-2 4-1 11 0 17l2 11 5 15 1 21c1 7 4 12 5 22l4 44c1 8 2 10-2 22h110z"></path>
    <path class="st2"
      d="M247 382l18-26 15-28c3-5 7-10 5-22-1-13-3-17-2-35 1-17-2-21-6-29-1-5-2-7-4-8l3-25v-20c1-15-3-26-5-29-1-3-4-6-9-7s-10 3-10 5c-2 1-7 8-4 33-6 14-10 28-11 33s-5 27-6 26 5-22 6-35l6-28c1-6 1-27-6-29-2-5-6-7-11-7-4 0-8 3-8 5-2 1-4 11-4 24-4 5-10 20-17 54 0 0 2-33 6-46 5-13 8-19 5-26 2-3-2-6-6-7-5-2-10 1-11 3-3 1-9 12-12 20-5 9-11 24-13 32s-3 40-4 42c-2 2-4 2-6 0s-2-2-2-6l-3-15-2-19c1-3 5-10 5-18-1-8-6-12-7-13-2-1-3-3-8-2s-7 12-7 12l-7 15-2 10-1 14c-2 4-1 11 0 17l2 11 5 15 1 21c1 7 4 12 5 22l4 44c1 8 2 10-2 22"></path>
    <path class="st5"
      d="M157 252c-2-2-3-3-3-6l-3-16-2-18c1-4 5-10 5-18-1-9-6-12-7-13-2-1-3-3-8-2s-7 12-7 12l-7 15-2 10-1 13c-2 5-1 12 0 18l2 11 5 15"></path>
    <g class="st3">
      <path class="st4" d="M134 192l4-1 3-1 2-3 2-1 1-2a14 14 0 0 1-2 4l-3 3-3 1h-4z"></path>
    </g>
    <path class="st2" d="M266 287v-30l7-23M192 250c2-5 5-11 5-16"></path>
  </g>
  <g id="r" class="st0">
    <path class="st1"
      d="M297 223c1-3 6-15 5-21-2-3-17-5-27 12-9 16-9 20-8 28-2 1-8 17-9 21-2 1-4 7-5 8s-3-3-3-17l3-22 7-33 5-32c3-9 4-27 0-37-3-10-13-9-14-8-2 1-6 4-8 10s-3 13-3 21c-2-4-4-4-4-4s-3-6-10-5c-8 1-10 6-10 6l-2 1h-1c-2-1-7-2-11-1l-7 5s-4-1-7 1l-5 3-3-4c0-1-3-5-8-2l-9 6-14 7c-3 2-7 9-10 13-3 3-3 7-8 14-5 6-4 18-5 23s2 21-1 29c-3 7 0 28 0 37 1 8 5 36 1 52-3 16-24 48-24 48h107c6-7 11-18 19-24l28-26 22-22c6-4 6-13 9-25 2-13 10-35 10-37l-1-2c0-1 2-1 2-3l-1-20zm-76-18l-3 4v-9l5-17c2 0 9-7 10-10l-12 32z"></path>
    <path class="st2"
      d="M209 382c6-7 11-18 19-24 9-6 22-20 28-26l22-21c6-5 6-13 9-26 2-13 10-34 10-36v-2l1-4-1-20c0-4 6-15 5-21-2-3-17-5-27 12-9 16-9 20-7 28-2 1-8 17-10 21-2 1-4 7-5 8s-3-3-2-17c0-14 2-19 2-22l7-33c3-10 3-24 5-32 3-9 4-27 1-37-4-10-13-9-15-8s-6 4-8 10-3 13-3 21l-4-4s-2-6-10-5-10 6-10 6l-2 1h-1c-2-1-7-2-11-1l-7 5s-4-1-7 1l-5 3-3-4c1-1-3-4-7-2l-9 6-15 7-10 13c-3 3-3 7-8 14-5 6-4 18-5 23s2 21-1 29c-3 7 0 28 0 37 1 8 5 36 1 52-3 16-24 48-24 48m119-177l-3 4v-9l5-17c2 0 9-7 10-10l-12 32z"></path>
    <path class="st2"
      d="M148 214c0-6 1-30 5-38 3-5 12-5 13-7s9-6 17-9M165 234c2-2 9-7 10-11 2-3 7-32 8-41s6-22 18-21c2-2 7-4 9-4l6-7M218 209v-9l5-17c2 0 9-7 10-10l-12 32-3 4z"></path>
    <path class="st5"
      d="M209 236c2-3 4-3 5-6 2-3 4-20 6-25 3-4 7-18 13-31s6-19 6-21l4-21c2-6 6-9 8-10 1-1 11-2 14 8s3 28 0 37l-5 32-7 33"></path>
    <g class="st3">
      <path class="st4"
        d="M261 127l-1 8-3 3h-1l-2 1h-7l-2-2v-2-3 3l1 2 1 1a15 15 0 0 0 8 0l1-1h1l2-3 1-3 1-4z"></path>
    </g>
    <g class="st3">
      <path class="st4"
        d="M297 202l-4 5c-2 1-3 3-3 5l-1 3a8 8 0 0 0 3 6l2 2-5-5-1-3 1-3 3-6 2-2 3-2z"></path>
    </g>
  </g>
  <g id="e" class="st0">
    <path class="st1"
      d="M212 382c5-6 6-11 11-13s12-9 16-13a598 598 0 0 1 39-45l3-18c1-7 1-10 4-19s7-17 5-18v-8-14l4-10c1-4 2-12 1-13 0-1-12-7-24 9-11 16-13 26-12 32-4 2-3 8-5 13-3 5-3 9-3 9s-4 3-5 8c-2 4 0-17 2-26l8-24c5-9 9-24 10-29s0-10 5-20 5-24 1-31c-4-6-12-6-16-2-4 5-7 7-10 17s-3 12-10 26l-19 43h-5v-12c1-5 5-12 7-23 1-11 2-14 6-24 5-9 5-16 5-18 1-2 9-21 1-30 0-4-12-7-16-3-4 3-6 10-6 12l-5 13c-4 0-10 5-12 6-2 0-6 0-8 2l-4 2c-1 1-2-3-4-4s-5-1-9 3l-10 10c-5 4-16 23-18 31-3 8-4 1-8 19-4 17-2 26-5 33s-6 15-6 26l1 42c0 12 3 18-5 37s-13 24-13 24h109z"></path>
    <path class="st2"
      d="M212 382c5-6 6-11 11-13s12-9 16-13a598 598 0 0 1 39-45l3-18c1-7 1-10 4-19s7-17 5-18v-8-14l4-10c1-4 2-12 1-13 0-1-12-7-24 9-11 16-13 26-12 32-4 2-3 8-5 13-3 5-3 9-3 9s-4 3-5 8c-2 4 0-17 2-26l8-24c5-9 9-24 10-29s0-10 5-20 5-24 1-31c-4-6-12-6-16-2-4 5-7 7-10 17s-3 12-10 26l-19 43h-5v-12c1-5 5-12 7-23 1-11 2-14 6-24 5-9 5-16 5-18 1-2 9-21 1-30 0-4-12-7-16-3-4 3-6 10-6 12l-5 13c-4 0-10 5-12 6-2 0-6 0-8 2l-4 2c-1 1-2-3-4-4s-5-1-9 3l-10 10c-5 4-16 23-18 31-3 8-4 1-8 19-4 17-2 26-5 33s-6 15-6 26l1 42c0 12 3 18-5 37s-13 24-13 24"></path>
    <path class="st2" d="M140 238c4-6 4-10 4-13s0-11 1-16c2-4 1-8 2-12s2-7 10-14c8-8 8-13 22-22"></path>
    <path class="st5"
      d="M166 245c4-5 7-15 10-27 4-13 6-26 9-30 0-1 2-9 8-18l11-19 4-13c1-2 3-9 7-12 3-4 16-1 16 3 8 9 0 28-1 30s-1 9-5 18c-4 10-5 13-7 24l-6 23v12"></path>
    <g class="st3">
      <path class="st4"
        d="M293 213l-3 1-2 2-4 5-1 3v4l2 2 2 3c-2-1-4-3-4-5l-1-4 2-3c0-2 2-4 3-5l3-2 3-1z"></path>
    </g>
    <g class="st3">
      <path class="st4" d="M229 130l-2 5-4 4-3 1h-3l-5-1h6l5-1 4-3 2-5z"></path>
    </g>
  </g>
  <g id="w" class="st0">
    <path class="st1"
      d="M205 381c5-5 9-10 16-15s11-10 15-14 16-17 25-24c10-7 13-12 15-15 3-4 2-16 8-29s5-17 5-17 4-4 5-9c0-4 0-17 3-20l-2-2s8-15 9-23c-3-4-18-5-30 9-11 15-11 22-10 28-3 2-5 7-7 12l-3 10c-1 0-6 5-8 9s1-20 3-31l15-41 4-17 6-15c0-4 1-18-3-22-4-3-6-3-12-3s-14 15-13 23l-10 15c-2 4-15 31-18 42h-6l7-28c3-7 6-13 6-16 2 0 8-6 9-11 2-2 12-13 7-21 0-3-8-5-13-4-4 0-6 3-6 3s-2 0-5 2l-5 5c-2 1-15 9-18 13-3 3-1-3-1-3l5-15c2-5 6-14 6-19 0-4-2-7-3-7 0-1-2-6-9-7-8-1-10 7-11 10-2 2-9 10-10 20-3 1-17 17-22 24l-11 19-8 18c-4 11-4 21-7 26l-9 27v63l-2 11-21 40h114z"></path>
    <path class="st2"
      d="M91 381a594 594 0 0 0 23-50c2-5 0-57 1-63 0-6 7-22 9-27 2-6 2-16 6-26 4-11 7-16 9-19l10-18c5-7 19-23 22-24 1-10 9-19 10-21 2-2 3-11 11-10s9 6 9 7c1 1 3 4 3 8s-3 13-5 18M167 236l6-6c1-2 6-12 7-19a84 84 0 0 1 15-37c2-3 15-12 17-12s4-3 6-5 5-2 5-2 2-3 6-4c4 0 12 1 12 5 5 7-4 19-6 20-1 5-8 11-9 12 0 3-4 9-6 15-3 7-8 27-8 29h6a394 394 0 0 1 28-57c0-8 7-24 13-24s9 1 13 4c3 3 3 18 2 21 0 4-5 11-6 15l-3 18c-2 5-13 29-15 41-3 11-5 35-4 31s7-10 8-10l4-10c3-4 3-10 6-12-1-5-1-12 11-27 11-15 26-14 29-10-1 9-9 24-9 24l2 2c-3 3-3 15-3 20s-4 9-4 9 0 4-6 17-4 25-7 29c-3 3-6 8-15 15-10 7-21 20-25 24l-16 14c-7 5-11 10-15 15"></path>
    <g class="st3">
      <path class="st4" d="M301 214l-4 4-4 4a22 22 0 0 0-1 9v3l-1-1v-2-3l1-6a17 17 0 0 1 9-8z"></path>
    </g>
    <path class="st5"
      d="M140 234l5-5c0-3 1-14 4-23a348 348 0 0 1 20-46l2-6c2-10 9-18 10-21 2-2 4-10 11-9 8 1 9 5 10 7 0 0 2 3 2 7s-3 13-5 19l-5 15"></path>
    <g class="st3">
      <path class="st4" d="M200 133a31 31 0 0 1-4 7l-1 1h-4l-6-1h-2v-1-3 3h1v1h10l2-2 4-5z"></path>
    </g>
  </g>
  <g id="q" class="st0">
    <path class="st1"
      d="M172 382c4-5 17-24 29-33l52-40c5-6 6-12 10-22l16-40c1-4 0-14 2-18v-2s8-20 7-22c0-3-9-4-16-2-6 2-15 12-18 17s-8 13-6 20c-2 0-3 2-4 3l-7 18-5 3-2 4-3-3c0-1 2-14 6-23a499 499 0 0 1 26-52c1-4 10-12 11-18s5-12 1-18c-3-7-9-7-14-6-5 2-12 12-16 19-3 7-11 7-22 23l-17 28c-1 3 0 5-2 8-2 0-2-12 1-17l13-23c1 0 10-2 14-10 2-4 5-2 8-8 3-5 3-9 1-12-1-4-4-8-12-6l-11 4c-1-1-2-5-7-6-6-1-11 2-14 3-3 0-10 1-13 3-4 0-11 0-16 3 2-4 6-14 5-22-2-9-11-11-13-11-2-1-5 6-7 10l-19 34c-6 10-10 24-12 28s-3 17-3 22-7 22-9 28c-1 6-1 25-4 46-3 20 0 11-3 24s-6 21-17 37l-18 29h108z"></path>
    <path class="st2"
      d="M172 382c4-5 17-24 29-33l52-40c5-6 6-12 10-22l16-40c1-4 0-14 2-18v-2s8-20 7-22c0-3-9-4-16-2-6 2-15 12-18 17s-8 13-6 20c-2 0-3 2-4 3l-7 18-5 3-2 4-3-3c0-1 2-14 6-23a499 499 0 0 1 26-52c1-4 10-12 11-18s5-12 1-18c-3-7-9-7-14-6-5 2-12 12-16 19-3 7-11 7-22 23l-17 28c-1 3 0 5-2 8-2 0-2-12 1-17l13-23c1 0 10-2 14-10 2-4 5-2 8-8 3-5 3-9 1-12-1-4-4-8-12-6l-11 4c-1-1-2-5-7-6-6-1-11 2-14 3-3 0-10 1-13 3-4 0-11 0-16 3 2-4 6-14 5-22-2-9-11-11-13-11-2-1-5 6-7 10l-19 34c-6 10-10 24-12 28s-3 17-3 22-7 22-9 28c-1 6-1 25-4 46-3 20 0 11-3 24s-6 21-17 37l-18 29"></path>
    <path class="st5"
      d="M164 157c2-4 6-14 5-22-2-9-11-11-13-11-2-1-5 6-7 10l-19 34c-6 10-10 24-12 28s-2 17-3 22"></path>
    <path class="st2"
      d="M135 204c0-6 6-35 11-39s12-3 14-4c1-1 4-5 8-6M188 157c-2-1-5-3-8-3M154 221c4-1 6-5 11-17s14-38 20-41c5-4 13-2 15-3 2 0 5-3 11-2s13 5 13 5M214 154l-5 4"></path>
    <g class="st3">
      <path class="st4" d="M286 206h-3l-3 3-2 2-1 2-1 1-2 7 1 3 2 3-3-3v-3-4l1-3 1-2 1-1 2-3 3-2h4z"></path>
    </g>
    <g class="st3">
      <path class="st4" d="M159 127l4 4-1 3-1 3-5 2-6 1 6-1 4-3 2-5-3-4z"></path>
    </g>
  </g>
  <g id="tab" class="st0">
    <path class="st1"
      d="M172 382c6-8 12-20 21-27s26-17 32-20c7-3 10-7 14-8l14-7c4-3 7-8 9-15s15-37 14-38c1 0 5-9 4-11l2-13c2-5 2-5 0-7 3-2 12-16 11-21s-12-6-16-3-14 10-17 15c-4 5-9 17-9 19l1 2-8 15c-2 3-5 6-4 7-1 2-5 3-8 8l-13-7c0-3 5-19 8-24 2-5 19-28 21-32l12-22c3-4 14-20 13-34s-16-10-17-7c-3 2-10 10-13 18l-24 27-19 25c-2 2-8 2-7-2 0-5 5-15 10-22l9-17c2 0 11-6 14-9 3-1 14-8 14-15-1-7-8-9-16-9l-15 1-8-2-8 2h-7l-9 2-12 1c-4 1-5 4-8 4-3 1-9 1-14 5-4 4-6 11-6 11l4-11c1-3 5-16 2-24s-15-10-17-9-4 7-4 12-5 13-5 15l-1 7-3 8-3 11-3 8-2 10-1 23-1 15-4 14-3 30-6 42c0 6 0 7-3 13a394 394 0 0 1-29 46h114z"></path>
    <path class="st2"
      d="M172 382c6-8 12-20 21-27s26-17 32-20c7-3 10-7 14-8l14-7c4-3 7-8 9-15s15-37 14-38c1 0 5-9 4-11l2-13c2-5 2-5 0-7 3-2 12-16 11-21s-12-6-16-3-14 10-17 15c-4 5-9 17-9 19l1 2-8 15c-2 3-5 6-4 7-1 2-5 3-8 8l-13-7c0-3 5-19 8-24 2-5 19-28 21-32l12-22c3-4 14-20 13-34s-16-10-17-7c-3 2-10 10-13 18l-24 27-19 25c-2 2-8 2-7-2 0-5 5-15 10-22l9-17c2 0 11-6 14-9 3-1 14-8 14-15-1-7-8-9-16-9l-15 1-8-2-8 2h-7l-9 2-12 1c-4 1-5 4-8 4-3 1-9 1-14 5-4 4-6 11-6 11l4-11c1-3 5-16 2-24s-15-10-17-9-4 7-4 12-5 13-5 15l-1 7-3 8-3 11-3 8-2 10-1 23-1 15-4 14-3 30-6 42c0 6 0 7-3 13a394 394 0 0 1-29 46"></path>
    <path class="st5"
      d="M141 161c1-3 5-16 2-24s-15-10-17-9-4 7-4 13-5 12-5 14l-1 7-3 8-3 11-3 8-2 10-1 23"></path>
    <path class="st2"
      d="M121 218c3-5 8-17 9-25s7-24 10-29M145 222c4-5 9-8 13-17l13-26c4-8 10-18 13-19 2-2 5-2 7-3l9-5 12-3"></path>
    <g class="st3">
      <path class="st4" d="M291 215h-2l-3 2-1 1-1 2-1 1-2 4v6l-1-3v-3l2-5 1-1 1-1 2-2 2-1 2-1 1 1z"></path>
    </g>
    <g class="st3">
      <path class="st4" d="M135 132c0 3-1 6-3 8l-3 2-4-1h3c2 0 3-1 3-2l2-3 2-4z"></path>
    </g>
  </g>
  <g id="5" class="st0">
    <path class="st1"
      d="M213 381l27-42 16-17 18-25c5-7 17-21 19-27s1-17 1-20l5-25 3-13c1-3-2-13 0-18s9-17 8-22-14-7-23 2-14 18-16 23 0 9 0 10l-3 3-4 22-4 5c-1 2-1-29 1-37l14-42 4-20c2-7 6-31-1-40s-16-4-18 1-4 8-5 14-1 12-3 17l-12 23-13 29c-1 1-4-1-6-5l-2-19 1-2c0-1 4 3 12-3 8-5 6-12 4-16l-7-11c-3-2-7-6-16-7-9 0-22 2-25 6-4 4-6 11-6 12h-17l-8 1c-3 0-8 5-10 13-4 0-6 3-9 5l-11 10c-4 3-7 3-9 10s0 22 0 25c1 3 6 16 5 22s-2 16 0 25l6 27c1 6 4 27 3 36-1 10-6 25-9 30-2 6-13 30-20 40h110z"></path>
    <path class="st2"
      d="M213 381l27-42 16-17 18-25c5-7 17-21 19-27s1-17 1-20l5-25 3-13c1-3-2-13 0-18s9-17 8-22-14-7-23 2-14 18-16 23 0 9 0 10l-3 3-4 22-4 5c-1 2-1-29 1-37l14-42 4-20c2-7 6-31-1-40s-16-4-18 1-4 8-5 14-1 12-3 17l-12 23-13 29c-1 1-4-1-6-5l-2-19 1-2c0-1 4 3 12-3 8-5 6-12 4-16l-7-11c-3-2-7-6-16-7-9 0-22 2-25 6-4 4-6 11-6 12h-17l-8 1c-3 0-8 5-10 13-4 0-6 3-9 5l-11 10c-4 3-7 3-9 10s0 22 0 25c1 3 6 16 5 22s-2 16 0 25l6 27c1 6 4 27 3 36-1 10-6 25-9 30-2 6-13 30-20 40"></path>
    <path class="st5"
      d="M261 200l14-42 4-20c2-7 7-31 0-40-8-9-17-4-19 1s-4 8-5 14-1 12-3 17c-1 5-10 19-12 23l-13 29"></path>
    <path class="st2" d="M145 202c2-3 2-25 1-32l1-19M174 190c3-3 7-7 6-21s2-32 2-32"></path>
    <g class="st3">
      <path class="st4"
        d="M308 172l-4-1-4 1c-2 1-3 3-3 6l-1 4v5l2 2 2 3-3-3-1-2h-1v-1a20 20 0 0 1 2-12l3-3 4-1 2 1 2 1z"></path>
    </g>
    <g class="st3">
      <path class="st4"
        d="M278 101l-1 4-2 2-2 1h-1a39 39 0 0 1-7 0h-2l-2-1v-1-2l1-3-1 3 1 3 3 1h6l2-1h1c2-1 4-3 4-6z"></path>
    </g>
    <path class="st2" d="M219 157v-23"></path>
  </g>
  <g id="4" class="st0">
    <path class="st1"
      d="M135 155c-2 0-14 11-17 16s-5 2-7 8-1 21 0 27c1 7 4 13 4 21s-1 12 1 23c3 10 6 15 9 34 2 19 5 27 3 33l-12 39-16 27h109l23-38 19-21c4-4 14-24 22-34s14-19 14-25c1-5-1-8 1-20l3-23c0-5 2-5 2-11 0-5-2-9-1-18v-3c0-1 6-12 5-19s-13-6-19-2-10 9-14 17-4 15-4 21-2 5-3 17l-3 13s-3-2-4-10a283 283 0 0 1 0-54c2-9 3-15 3-23s2-32 1-39c-2-7-5-15-12-18s-14 2-15 12l-1 19-3 12c-2-4-8-13-20-15s-11 1-20 1c-9 1-10 5-13 10l-2 6-11 1c-7-1-5 2-10 2-4 0-7 2-10 8l-2 6"></path>
    <path class="st2"
      d="M209 383l23-38 19-21c4-4 14-24 22-34s13-19 14-25c1-5-1-8 1-21l2-22c1-5 3-5 3-11 0-5-2-9-1-18v-3c0-1 6-12 5-19s-13-6-19-2-10 8-14 17c-4 8-4 14-4 20l-3 18-3 13s-3-2-4-10a283 283 0 0 1 0-54c1-9 3-15 3-23s2-33 1-40c-2-7-5-14-12-17s-14 2-15 11l-1 20-3 12c-2-5-8-13-20-15s-11 1-20 1-10 5-13 10l-2 6-11 1c-7-1-5 1-10 2-4 0-8 2-10 8l-2 6M135 155c-2 0-14 11-17 16s-5 2-7 8-1 21 0 27c1 7 4 13 4 21s-1 12 1 23c3 10 6 15 9 34 2 19 5 27 3 33l-12 39-16 27"></path>
    <path class="st2"
      d="M210 180c-1-5-4-16-4-24 2-3 9 5 9 5l-5 19zM222 134c-2-4-7-11-19-13s-11 1-20 1c-9 1-10 5-13 10s-3 23-3 29 3 25-6 33M167 138l-10 1c-6-1-5 2-9 2-5 0-8 2-11 8s-3 9-3 22l3 31c-1 6-4 11-6 12"></path>
    <g class="st3">
      <path class="st4"
        d="M293 169l-6 2-2 3-1 3a10 10 0 0 0 2 10l3 2c-3-1-4-3-5-5l-1-3v-4l1-3 3-3c0-1 1-2 3-2h3z"></path>
    </g>
    <path class="st5"
      d="M206 189c4-2 7-23 12-37l8-28c1-5-1-10 1-19s8-15 15-12 10 11 12 18c1 7-1 31-1 39s-2 14-3 23l-1 24"></path>
    <g class="st3">
      <path class="st4" d="M230 104l2 1 2 1h5l4-3 3-4-2 5-5 3h-5l-2-1-2-2z"></path>
    </g>
    <path class="st2" d="M206 157v-22"></path>
  </g>
  <g id="3" class="st0">
    <path class="st1"
      d="M141 218c10-2 17-12 20-17l6-21 7-19 1-7 5-9c-1 2-7 4-10 3-3 0-11 2-17 5-6 4-12 2-16 8-5 6-6 19-6 20-4 1-13 1-16 7l-3 9-4 12v27c-1 4-5 12-5 17l-1 31-3 39a399 399 0 0 1-21 59h116c10-14 32-32 45-43 14-12 26-23 29-28s4-19 8-28l6-21 6-16c0-3 2-5 3-7 1-1 11-14 10-20 0-6-7-8-13-7s-13 5-19 11c-7 6-12 16-12 20s-3 5-7 16-3 12-7 14c-4 3-4 5-6-2l-3-18c0-3 2-2 3-8 1-7 2-13 6-25 4-11 8-15 14-25l9-20c1-1 12-9 9-17s-17-12-22-8-2 5-13 12c-12 7-28 42-30 43-2 2-8 2-8-3s7-26 9-33c1-7 0-11 4-19s4-15 5-19c0-4 2-11 1-19 0-8-4-11-5-12 0-1-4-6-12-4-8 1-8 13-8 14l-3 6-1 9-16 30-2 6-7 19c-1 6-3 16-6 21s-10 15-20 17"></path>
    <path class="st2"
      d="M194 382c10-15 32-32 45-43 13-12 26-23 29-28s4-19 8-28l6-21 6-16c0-3 2-5 3-7 1-1 11-14 10-20 0-6-7-9-13-7-6 1-13 5-20 11-6 6-11 16-11 20s-3 5-7 16-3 12-7 14c-4 3-4 5-6-2l-3-18c0-3 2-2 3-9 1-6 1-13 6-24 4-11 8-16 13-25l10-20c1-1 11-9 9-17s-17-12-23-8-1 4-13 11c-11 7-28 43-30 44-2 2-7 2-7-3s7-26 9-33c1-8-1-12 4-20 4-7 3-14 4-18l2-19c0-8-4-11-5-12s-4-6-12-4c-9 1-8 13-8 14l-3 6-1 9-17 30-1 6-7 19-6 21c-3 5-10 15-20 17"></path>
    <path class="st2"
      d="M141 218c10-2 17-12 20-17l6-21 7-19 1-7 5-9c-1 2-7 4-10 3-3 0-11 2-17 5-6 4-12 2-16 8-5 6-6 19-6 20-4 1-13 1-16 7l-3 9-4 12v27c-1 4-5 12-5 17l-1 31-3 39a399 399 0 0 1-21 59"></path>
    <path class="st2"
      d="M179 147c-2 1-6 2-9 1-3 0-11 2-17 5-6 4-12 2-16 8-5 6-6 19-6 20-1 1-2 25-4 31-1 6-2 13-10 19"></path>
    <g class="st3">
      <path class="st4"
        d="M299 217l-3-2h-4l-3 3-2 4v4l-1 2v2l2 3 1 2 1 2-2-4-2-3v-2-3l1-4 2-3 3-3 2-1h2l3 3z"></path>
    </g>
    <path class="st5"
      d="M161 201l6-21 7-19 1-7 17-29 1-10 3-5c0-2-1-13 8-15 8-2 11 4 12 5s5 4 5 12l-2 19c-1 4 0 10-4 18-5 8-3 12-5 19-1 8-8 29-8 34"></path>
    <g class="st3">
      <path class="st4" d="M198 111h5l5-2h1l1-1 1-2v-5 5l-1 2-1 1-1 1-5 2-5-1z"></path>
    </g>
  </g>
  <g id="2" class="st0">
    <path class="st1"
      d="M293 204c0-2 7-20 6-23-2-4-15-7-27 7-11 15-13 23-12 32-2 2-3 17-6 24l-6 7c-1 0-7-5-15-4 0-3 0-13 4-24 4-10 14-25 18-31 4-5 3-6 3-7 1-1 11-8 10-24s-15-13-16-13c-1 1-7 5-12 13-3-1-10 1-19 13l-19 31c-1 1-6 1-7-2-1-2-1-7 2-16 4-7 8-18 9-22 3 0 11-4 13-6 3 0 13-2 17-10 5-8-2-11-2-12l-17-3h-11c-3 0-7 0-14 3l-8 3c1-3 13-25 9-34s-10-10-14-8c-3 1-6 5-8 12l-8 10-4 12c-1 1-5 5-6 9l-4 11-24 1c-5 2-13 10-15 12l-9 11c-4 2-5 5-5 8l2 9c0 1 0 11 2 17s5 7 6 12l3 23c1 7 4 14 6 20s2 17 3 20c0 4 4 18 3 25-1 6 0 9-7 24l-13 29-14 20h102l17-27c5-8 13-20 26-31l46-35c5-5 6-9 8-25 3-16 6-29 5-30l2-11v-20zm-162-5h-1c-1 0 1-11-3-16 3-2 7-8 7-10h4l-7 26z"></path>
    <path class="st2"
      d="M185 139c1-3 12-24 8-33s-10-10-14-8c-3 1-6 5-9 12l-7 10-4 12c-1 1-5 5-6 9l-6 11-5 10c-3 6-3 11-4 13s-5 14-7 24h-1c-1 0 1-11-3-16 3-2 7-7 7-10h3"></path>
    <path class="st2"
      d="M147 152l-23 1c-4 2-12 10-14 13l-9 10c-4 3-5 5-5 8l2 9c0 1 0 11 2 17l5 12 4 24 5 19 3 21c0 4 5 18 4 24s0 9-7 24l-13 29-14 20"></path>
    <path class="st5"
      d="M185 139c1-3 12-24 8-33s-10-10-14-8c-3 1-6 5-9 12l-7 10-4 12c-1 1-5 5-6 9l-6 11-5 10c-3 6-3 11-4 13s-5 14-7 24"></path>
    <path class="st2"
      d="M188 383l18-27c5-8 12-20 26-30l46-36c5-5 5-9 8-25l4-30c2-1 3-10 2-11v-20c0-2 8-20 7-23s-15-7-27 7c-11 15-13 23-12 32-2 2-3 17-6 24l-6 7c-1 0-7-4-15-4 0-3 0-13 4-23 4-11 14-26 18-31s3-7 3-8 11-8 10-24-15-13-16-13c-1 1-7 5-12 13-4-1-11 2-19 13l-19 31c-1 1-6 1-7-1-1-3-1-8 2-17 4-7 8-18 9-22 3 0 11-4 13-6 2 0 12-2 17-10s-2-11-2-12l-17-4-11 1c-3 0-7 0-14 3s-17 4-22 9c-5 6-11 33-12 38-1 4-3 24-11 31"></path>
    <g class="st3">
      <path class="st4"
        d="M296 182c-2 0-5 1-6 3l-4 6v7c0 3 2 5 4 6l-3-2-2-4v-7l4-7a11 11 0 0 1 7-2z"></path>
    </g>
    <path class="st2" d="M134 173l-1-10M127 183l-4-3M206 165v-7M240 162c4 0 11 1 14 3M219 159l5-8"></path>
    <g class="st3">
      <path class="st4" d="M188 105l-2 4-4 4h-3-1-4l-1-1-1-1 1 1h9l3-3 3-4z"></path>
    </g>
  </g>
  <g id="1" class="st0">
    <path class="st1"
      d="M292 210c-7 0-19 7-22 8l-15 14c-4 6-2 9-3 10l-2 1-12 15c-2 2-3 2-3 4-5 0-10 5-11 6-1 0-2-5-6-8s-8-4-8-9c0-4 8-19 12-25l17-19 10-14 15-14c2-2 6-6 8-13 2-6 4-15-5-19-8-3-19 8-22 11v-1c-4-16-15-20-18-21l-9-3h-8l-16-1-1-1s-7-5-18-4c-8-1-15-2-20 0 0 0 6-9 4-18-2-10-12-12-16-13s-4 6-5 10c0 4-6 15-7 17v4l-11 21-2 6c0 2-4 7-6 10-1 3 0 8-3 16-2 8-7 17-10 22l-6 21-10 25-4 13-6 28-11 25-11 26c-7 15-32 44-32 44h115c5-14 16-30 19-34 2-4 11-13 19-18 7-5 18-8 30-11 13-3 24-3 32-6 8-2 15-14 17-18l20-28c2-2 1-3 1-3h2l4-7v-3h2l3-8 4-8v-4l9-9a65 65 0 0 0 7-11s-3-5-11-6zm-87-21l-10 9-1-1c-3-4 4-13 5-15 2-3 16-16 17-19h6l3 4h3c-7 4-19 19-23 22z"></path>
    <path class="st2"
      d="M159 109c2 9-4 18-4 18 5-2 12-1 20 1 11-2 18 4 18 4h1l16 1h8l9 3c3 1 14 5 18 21M19 384s24-30 31-44l12-26 11-25 6-28 4-13 10-25 6-21 10-22c3-8 2-13 3-16 2-3 6-8 6-10l2-6 11-21v-4c1-2 7-13 7-17"></path>
    <path class="st2"
      d="M230 166c6-2 12-5 15-8s14-14 22-11 7 13 5 19-6 11-8 13c-3 2-12 10-14 14l-11 14c-3 3-12 12-16 19-5 6-13 21-13 25 0 5 4 6 8 9s5 8 6 7c1 0 6-5 11-5 0-3 1-3 3-5l12-14 2-1c1-1-1-5 3-10l15-14c3-2 15-8 22-8 8 1 11 7 11 7l-1 1-6 9-9 9v4l-4 8-3 8h-1l-1 3-4 7h-2s1 1-1 3c-1 1-17 23-19 28s-10 16-18 18-19 2-32 6-22 6-30 11c-8 4-17 14-19 17s-14 21-19 35"></path>
    <path class="st5"
      d="M156 125s5-7 3-16c-1-8-6-9-8-9-2-3-6-4-8-4s-4 5-5 10c0 4-6 15-7 17v4l-11 21-2 6c0 2-4 7-6 10-1 3 0 8-3 16l-10 22"></path>
    <path class="st2" d="M193 132s-7-6-18-4c-11-3-22-3-25 2l-16 29-9 24-5 5"></path>
    <path class="st2"
      d="M140 190c3-2 8-3 12-8l28-37c4-5 11-13 14-13l16 1h8l9 3c3 1 14 5 18 21-4 6-13 7-14 8-2 1-4 3-6 2l-3-4h-6c-1 3-15 16-17 19-1 2-8 11-5 15"></path>
    <path class="st2" d="M189 203l16-14c4-3 19-21 25-23s12-5 15-8M216 163l4-5M222 163s0-2 3-2"></path>
    <g class="st3">
      <path class="st4" d="M151 101v5l-3 4-1 1-1 1h-1-1l-4-2 4 1 2-1 2-1 2-4 1-2v-2z"></path>
    </g>
    <g class="st3">
      <path class="st4" d="M285 234l-1-1-1-2 1-4 1-2 2-1 3-3-3 3-2 3-1 4v2l1 1z"></path>
    </g>
  </g>
  <g id="backquote" class="st0">
    <path id="bg" class="st1"
      d="M270 186c-8-1-14 1-24 7s-14 13-14 17c-8 7-13 22-14 25l-6 6c-1 1-1-1-1-3 1-3-1-3-2-5l2-8-1-7c0-2 1-4 7-12 7-8 13-9 17-12 5-3 10-8 20-13 10-4 16-11 17-21s-6-12-11-12c-5-1-15 7-15 7l-3 1-4-2c0-6-8-12-9-13s-1-7-5-11c-2-11-14-18-22-18l-13 6c-2-3-6-4-9-6-4-1-7-7-20-6-12 1-14 8-21 16l-3 5 1-2s0-12-2-20c-2-9-9-11-9-11s-2-2-7-1-4 12-5 18l1 12-2 5-1 7-2 4-1 7-4 9-3 15-9 19-6 18c-1 5-12 27-15 34l-12 34c-2 8-19 42-26 58s-15 26-18 31-3 16-3 16h108c3-9 17-30 33-48 16-17 32-21 43-27 11-5 37-13 43-22 7-8 9-25 13-42 4-16 8-24 10-27l2-4c2-1 13-11 15-16 0-3-2-8-10-8zm-76-16s1-9 8-11l3-1c4-2 10 4 10 4a89 89 0 0 1-21 8z"></path>
    <path class="st2"
      d="M109 171c3-6 14-17 18-24 4-8 6-16 12-24 7-9 9-16 21-17 13-1 16 5 20 7 3 1 7 2 9 6M149 153c4-2 16-11 21-17s23-23 32-23c8-1 20 7 22 18 4 4 4 9 5 10s9 7 9 13c0 0-5-3-23 8 0 0-6-5-10-4"></path>
    <g class="st3">
      <path class="st4" d="M277 189l-2 1-1 1-3 3-3 2-2 4 1-4 3-3 4-2 3-2z"></path>
    </g>
    <g class="st3">
      <path class="st4" d="M265 203v8l-1-2v-2l1-4z"></path>
    </g>
    <path class="st2" d="M194 170s1-9 8-11c6-2 12-6 15-10"></path>
    <path class="st2"
      d="M181 170s8 2 17 0l17-8c6-3 15-8 20-8 6 0 5 2 7 2s10-3 19 6M13 381s0-11 3-16c3-6 11-15 18-31 7-17 24-51 26-58l12-35c3-6 14-29 15-34l6-18 9-18c1-5 1-11 3-16 1-4 4-6 4-9l1-6 2-5 1-6 2-5-1-12c1-6 0-17 5-18 5-2 7 1 7 1s7 1 9 10 2 20 2 20"></path>
    <path class="st2"
      d="M245 155s10-7 15-7 13 3 11 13-7 16-17 21c-10 4-15 10-20 12-4 3-10 5-17 13l-7 11 1 7-2 8c1 2 3 3 3 5v4c1 0 4-6 6-6 1-3 6-18 14-25 0-5 4-12 14-18s16-8 24-7 9 6 9 9c-1 5-12 14-14 16l-2 4c-2 3-6 10-10 27-4 16-6 33-13 42-7 8-32 16-43 22s-27 10-43 27-31 39-33 48"></path>
    <path class="st5"
      d="M93 189l9-18c1-5 1-11 3-16 1-4 4-6 4-9l1-6 2-5 1-6 2-5-1-12c1-6 0-17 5-18 5-2 7 1 7 1s7 1 9 10 2 20 2 20"></path>
    <path class="st2" d="M224 131s0 6-2 11"></path>
    <g class="st3">
      <path class="st4" d="M125 98v5l-1 2-4 2-2-1-1-1 1 1h2l3-2 2-3v-3z"></path>
    </g>
  </g>
</svg>