<svg width="318" height="133" viewBox="0 0 318 133" fill="none" xmlns="http://www.w3.org/2000/svg">
<path fill-rule="evenodd" clip-rule="evenodd" d="M29.3701 26.1475C27.5146 26.1963 25.2441 26.2207 22.5586 26.2207H17.4316C17.627 22.5586 17.9199 19.043 18.3105 15.6738C18.75 12.2559 19.3848 8.95996 20.2148 5.78613L3.2959 13.8428V14.209C3.97949 14.209 4.54102 14.3066 4.98047 14.502C5.46875 14.6973 5.85938 15.21 6.15234 16.04C6.44531 16.8213 6.66504 18.0176 6.81152 19.6289C6.95801 21.1914 7.08008 23.3887 7.17773 26.2207H0V30.6152C0.390625 30.7129 0.90332 30.8105 1.53809 30.9082C2.0752 31.0059 2.80762 31.1035 3.73535 31.2012C4.66309 31.2988 5.83496 31.3965 7.25098 31.4941C7.2998 34.0332 7.32422 36.9629 7.32422 40.2832V51.6357C7.32422 53.9795 7.2998 56.1279 7.25098 58.0811C7.20215 59.9854 7.15332 61.9385 7.10449 63.9404C7.10449 65.9424 7.08008 68.0908 7.03125 70.3857C6.98242 72.6318 6.95801 75.2441 6.95801 78.2227C6.95801 80.8594 7.2998 83.4473 7.9834 85.9863C8.66699 88.4766 9.64355 90.6982 10.9131 92.6514C12.2314 94.6045 13.8184 96.167 15.6738 97.3389C17.5781 98.5596 19.7266 99.1699 22.1191 99.1699C24.4629 99.1699 26.9775 98.6816 29.6631 97.7051C32.3975 96.7773 35.3516 95.2148 38.5254 93.0176L29.2236 77.2705L29.0039 77.417C29.2969 78.2471 29.4434 79.2969 29.4434 80.5664C29.4434 82.1289 29.248 83.5693 28.8574 84.8877C28.4668 86.1572 27.9541 87.2803 27.3193 88.2568C26.6846 89.1846 25.9766 89.917 25.1953 90.4541C24.4141 90.9424 23.6328 91.1865 22.8516 91.1865C21.4355 91.1865 20.166 90.4541 19.043 88.9893C17.9199 87.5244 17.3584 85.083 17.3584 81.665C17.3584 78.2471 17.334 75.0977 17.2852 72.2168C17.2852 69.2871 17.2607 66.3574 17.2119 63.4277C17.2119 60.4492 17.1875 57.2998 17.1387 53.9795V42.5537V37.1338C17.1387 35.3271 17.1631 33.5693 17.2119 31.8604H22.4854C24.9756 31.8604 27.002 32.0312 28.5645 32.373C30.127 32.7148 31.3477 33.0811 32.2266 33.4717C33.252 33.96 34.0332 34.4727 34.5703 35.0098L36.9597 27.2443C38.744 27.8722 40.0969 28.7517 41.0186 29.8828C42.0928 31.1523 42.7031 32.7148 42.8496 34.5703C42.9473 37.5977 43.0205 40.21 43.0693 42.4072C43.167 44.6045 43.2158 46.6064 43.2158 48.4131C43.2646 50.2197 43.2891 51.9287 43.2891 53.54C43.3379 55.1514 43.3379 56.8848 43.2891 58.7402V64.8193V72.7295C43.2891 76.8311 43.8018 80.4688 44.8271 83.6426C45.9014 86.8164 47.3906 89.502 49.2949 91.6992C51.1992 93.8477 53.4697 95.5078 56.1064 96.6797C58.7432 97.8027 61.624 98.3643 64.749 98.3643C68.0693 98.3643 71.4873 97.0703 75.0029 94.4824C75.0029 99.2188 74.8564 103.247 74.5635 106.567C74.3193 109.888 73.9531 112.622 73.4648 114.771C73.0254 116.968 72.4883 118.677 71.8535 119.897C71.2188 121.167 70.5107 122.095 69.7295 122.681C68.9482 123.267 68.1182 123.633 67.2393 123.779C66.4092 123.926 65.5547 123.999 64.6758 123.999C63.0645 123.999 61.6973 123.73 60.5742 123.193C59.4512 122.656 58.5234 121.973 57.791 121.143C57.1074 120.312 56.5947 119.385 56.2529 118.359C55.96 117.383 55.8135 116.431 55.8135 115.503C55.8135 113.501 56.4727 111.572 57.791 109.717C59.1582 107.861 61.2578 106.226 64.0898 104.81L64.0166 104.443L45.7793 108.105C45.6816 108.887 45.584 109.619 45.4863 110.303C45.4375 110.986 45.4131 111.67 45.4131 112.354C45.4131 115.967 46.0723 119.043 47.3906 121.582C48.7578 124.121 50.4424 126.172 52.4443 127.734C54.4951 129.346 56.6924 130.493 59.0361 131.177C61.4287 131.909 63.6504 132.275 65.7012 132.275C68.582 132.275 71.2676 131.689 73.7578 130.518C76.2969 129.395 78.4941 127.466 80.3496 124.731C82.2051 121.997 83.6699 118.384 84.7441 113.892C85.8184 109.399 86.3555 103.784 86.3555 97.0459V88.7695V81.665C86.4043 79.2725 86.4287 76.709 86.4287 73.9746V64.0137C86.4287 59.4727 86.502 54.834 86.6484 50.0977C86.7949 45.3613 86.9902 40.2832 87.2344 34.8633C87.3809 33.0078 87.9912 31.3721 89.0654 29.9561C90.1885 28.4912 91.9951 27.4902 94.4854 26.9531V26.5869H68.4844V26.9531C70.4863 27.5879 71.9512 28.5645 72.8789 29.8828C73.8555 31.1523 74.417 32.7148 74.5635 34.5703C74.8076 39.7461 74.9785 44.9463 75.0762 50.1709C75.1738 55.3467 75.2227 60.5225 75.2227 65.6982L75.0762 87.2314V88.2568C73.4648 89.3799 71.9268 90.1855 70.4619 90.6738C69.0459 91.1133 67.7764 91.333 66.6533 91.333C62.5029 91.333 59.4023 89.5264 57.3516 85.9131C55.3008 82.251 54.2754 76.8799 54.2754 69.7998V63.1348V54.7119C54.2754 51.6846 54.2998 48.4863 54.3486 45.1172C54.3975 41.748 54.4707 38.3301 54.5684 34.8633C54.666 33.0078 55.2031 31.3721 56.1797 29.9561C57.2051 28.4912 58.8408 27.4902 61.0869 26.9531V26.5869H37.162L37.5 25.4883C36.6211 25.6348 35.4736 25.7568 34.0576 25.8545C32.8369 25.9521 31.2744 26.0498 29.3701 26.1475ZM103.131 54.5654C103.229 59.9854 103.253 65.5762 103.204 71.3379L103.131 87.1582C103.131 90.1367 103.106 93.4082 103.058 96.9727C103.058 100.537 103.009 104.053 102.911 107.52C102.862 110.986 102.789 114.209 102.691 117.188C102.594 120.166 102.447 122.534 102.252 124.292L123.565 118.433V118.066C120.782 118.066 118.658 117.554 117.193 116.528C115.777 115.503 114.752 113.916 114.117 111.768C113.531 109.668 113.214 106.982 113.165 103.711C113.116 100.439 113.092 96.5332 113.092 91.9922C113.727 93.1152 114.508 94.0918 115.436 94.9219C116.412 95.7031 117.438 96.3623 118.512 96.8994C119.635 97.3877 120.733 97.7295 121.808 97.9248C122.931 98.1689 123.956 98.291 124.884 98.291C128.253 98.291 131.329 97.5098 134.112 95.9473C136.944 94.3359 139.361 92.0166 141.363 88.9893C143.414 85.9619 145.001 82.2754 146.124 77.9297C147.247 73.584 147.809 68.6523 147.809 63.1348C147.809 57.5684 147.345 52.417 146.417 47.6807C145.489 42.9443 144.098 38.8672 142.242 35.4492C140.387 31.9824 138.092 29.2969 135.357 27.3926C132.623 25.4395 129.425 24.4873 125.763 24.5361C123.858 24.585 122.174 24.9268 120.709 25.5615C119.293 26.1475 118.072 26.8555 117.047 27.6855C116.021 28.4668 115.191 29.2969 114.557 30.1758C113.922 31.0547 113.458 31.7627 113.165 32.2998C112.774 30.8838 112.164 29.5898 111.334 28.418C110.553 27.2461 109.381 26.3184 107.818 25.6348H94.2686V26.001C96.9541 26.8799 98.9561 28.3691 100.274 30.4688C101.593 32.5195 102.35 35.0342 102.545 38.0127C102.887 43.6279 103.082 49.1455 103.131 54.5654ZM120.562 32.2266C121.832 31.543 123.15 31.2012 124.518 31.2012C126.324 31.2012 127.984 31.9092 129.498 33.3252C131.012 34.6924 132.306 36.7188 133.38 39.4043C134.503 42.0898 135.357 45.4346 135.943 49.4385C136.529 53.3936 136.822 57.959 136.822 63.1348C136.822 81.8848 132.208 91.2598 122.979 91.2598C122.296 91.2598 121.368 91.1377 120.196 90.8936C119.073 90.6494 117.975 89.9658 116.9 88.8428C115.826 87.6709 114.898 85.8643 114.117 83.4229C113.336 80.9814 112.945 77.5635 112.945 73.1689V66.7969C112.994 64.7461 113.019 62.6953 113.019 60.6445C113.067 58.5449 113.116 56.4209 113.165 54.2725C113.263 52.0752 113.385 49.7559 113.531 47.3145C113.629 44.6289 113.995 42.2852 114.63 40.2832C115.313 38.2812 116.144 36.6211 117.12 35.3027C118.146 33.9355 119.293 32.9102 120.562 32.2266ZM168.1 84.0088C166.146 79.0283 165.17 71.6309 165.17 61.8164C165.17 52.002 166.146 44.6289 168.1 39.6973C170.053 34.7656 172.787 32.2998 176.303 32.2998C176.94 32.2998 177.549 32.3787 178.129 32.5366L168.167 84.1779C168.144 84.1218 168.122 84.0655 168.1 84.0088ZM165.959 95.6214L163.162 110.119H172.537L174.651 99.1638C175.194 99.2167 175.745 99.2432 176.303 99.2432C179.281 99.2432 182.089 98.4131 184.726 96.7529C187.362 95.0928 189.657 92.6758 191.61 89.502C193.563 86.3281 195.102 82.4219 196.225 77.7832C197.396 73.1445 197.982 67.8223 197.982 61.8164C197.982 55.8105 197.396 50.4883 196.225 45.8496C195.102 41.2109 193.563 37.3047 191.61 34.1309C190.534 32.3824 189.355 30.871 188.071 29.5968L191.287 12.9268H181.912L179.618 24.821C178.537 24.5823 177.432 24.4629 176.303 24.4629C173.178 24.4629 170.272 25.293 167.587 26.9531C164.901 28.5645 162.558 30.957 160.556 34.1309C158.603 37.3047 157.04 41.2109 155.868 45.8496C154.745 50.4883 154.184 55.8105 154.184 61.8164C154.184 67.8223 154.745 73.1445 155.868 77.7832C157.04 82.4219 158.603 86.3281 160.556 89.502C162.142 92.0171 163.943 94.0569 165.959 95.6214ZM185.39 43.4925C186.461 48.1539 186.996 54.2619 186.996 61.8164C186.996 71.6309 186.093 79.0283 184.286 84.0088C182.528 88.9893 179.867 91.4795 176.303 91.4795C176.246 91.4795 176.19 91.4789 176.133 91.4776L185.39 43.4925ZM224.646 27.0996C222.253 28.8574 220.349 31.2988 218.933 34.4238C218.933 32.5684 218.957 30.7861 219.006 29.0771C219.055 27.3193 219.274 25.7812 219.665 24.4629L199.816 30.3223V30.6885C202.502 30.6885 204.553 31.2012 205.969 32.2266C207.434 33.2031 208.483 34.9121 209.118 37.3535C209.802 39.7949 210.192 43.0664 210.29 47.168C210.388 51.2695 210.437 56.4209 210.437 62.6221C210.437 66.7236 210.363 70.9229 210.217 75.2197C210.07 79.4678 209.875 84.0088 209.631 88.8428C209.484 90.6982 208.85 92.3584 207.727 93.8232C206.652 95.2393 204.87 96.2158 202.38 96.7529V97.1191H226.184V96.7529C222.863 95.5322 221.081 92.9932 220.837 89.1357C220.446 82.8369 220.227 76.5869 220.178 70.3857V51.416C220.178 48.4375 220.52 45.7764 221.203 43.4326C221.887 41.04 222.741 39.0137 223.767 37.3535C224.792 35.6934 225.915 34.4238 227.136 33.5449C228.405 32.6172 229.626 32.1533 230.798 32.1533C231.726 32.1533 232.507 32.4219 233.142 32.959C233.776 33.4961 234.289 34.2041 234.68 35.083C235.119 35.9131 235.437 36.8408 235.632 37.8662C235.827 38.8916 235.925 39.8682 235.925 40.7959C235.925 42.1143 235.778 43.1641 235.485 43.9453L235.705 44.0918L243.542 31.2744C243.387 31.055 243.23 30.8412 243.072 30.6329C244.222 30.6627 245.234 30.73 246.108 30.835C247.329 30.9814 248.33 31.3721 249.111 32.0068C249.941 32.5928 250.552 33.4961 250.942 34.7168C251.382 35.9375 251.699 37.6221 251.895 39.7705C252.09 41.8701 252.188 44.5068 252.188 47.6807C252.236 50.8545 252.261 54.7119 252.261 59.2529C252.261 61.1084 252.236 62.7441 252.188 64.1602C252.188 65.5273 252.163 66.8213 252.114 68.042C252.065 69.2627 251.992 70.459 251.895 71.6309C251.846 72.8027 251.772 74.0723 251.675 75.4395C251.626 76.8066 251.528 78.3447 251.382 80.0537C251.284 81.7139 251.187 83.667 251.089 85.9131C250.894 88.501 250.259 90.7471 249.185 92.6514C248.11 94.5557 246.328 95.9229 243.838 96.7529V97.1191H270.278V96.7529C267.788 95.9229 265.957 94.6289 264.785 92.8711C263.613 91.0645 262.93 88.8428 262.734 86.2061C262.539 83.4717 262.393 81.2012 262.295 79.3945C262.197 77.5391 262.124 75.7812 262.075 74.1211V68.8477V61.9629V42.041C262.124 35.5957 262.417 29.7119 262.954 24.3896L242.569 29.9938C241.182 28.2974 239.7 27.0153 238.122 26.1475C236.169 25.0244 234.191 24.4629 232.189 24.4629C229.553 24.4629 227.038 25.3418 224.646 27.0996ZM251.309 1.97754C250.039 3.24707 249.404 4.80957 249.404 6.66504C249.404 8.52051 250.039 10.083 251.309 11.3525C252.578 12.6221 254.141 13.2568 255.996 13.2568C257.852 13.2568 259.414 12.6221 260.684 11.3525C262.002 10.083 262.661 8.52051 262.661 6.66504C262.661 4.80957 262.002 3.24707 260.684 1.97754C259.414 0.65918 257.852 0 255.996 0C254.141 0 252.578 0.65918 251.309 1.97754ZM274.896 40.21L287.347 47.9004L287.493 47.6807C286.81 46.5088 286.248 45.2148 285.809 43.7988C285.418 42.3828 285.223 40.9912 285.223 39.624C285.223 38.5986 285.32 37.6465 285.516 36.7676C285.76 35.8398 286.126 35.0342 286.614 34.3506C287.151 33.667 287.811 33.1299 288.592 32.7393C289.422 32.3486 290.423 32.1533 291.595 32.1533C292.962 32.1533 294.158 32.4219 295.184 32.959C296.258 33.4473 297.137 34.3994 297.82 35.8154C298.504 37.2314 299.017 39.1846 299.358 41.6748C299.7 44.165 299.871 47.3633 299.871 51.2695C298.357 50.9277 296.771 50.7568 295.11 50.7568C291.79 50.7568 288.787 51.5869 286.102 53.2471C283.416 54.9072 281.097 57.0801 279.144 59.7656C277.239 62.4023 275.75 65.4053 274.676 68.7744C273.65 72.0947 273.138 75.4395 273.138 78.8086C273.138 81.4453 273.455 84.0088 274.09 86.499C274.725 88.9404 275.701 91.1133 277.02 93.0176C278.338 94.9219 279.998 96.4355 282 97.5586C284.051 98.6816 286.468 99.2432 289.251 99.2432C291.155 99.2432 292.815 98.9014 294.231 98.2178C295.696 97.5342 296.941 96.7285 297.967 95.8008C298.992 94.8242 299.822 93.8477 300.457 92.8711C301.092 91.8457 301.556 91.04 301.849 90.4541C302.142 91.8701 302.581 93.1641 303.167 94.3359C303.753 95.5078 304.607 96.4355 305.73 97.1191H317.083V96.7529C315.569 96.2646 314.349 95.5322 313.421 94.5557C312.542 93.5303 311.858 92.4072 311.37 91.1865C310.931 89.917 310.638 88.5986 310.491 87.2314C310.345 85.8643 310.271 84.5703 310.271 83.3496V81.7383V79.4678V75.8057C310.32 74.292 310.345 72.3877 310.345 70.0928V61.8164C310.394 58.5449 310.418 54.6875 310.418 50.2441C310.467 41.748 308.978 35.3271 305.95 30.9814C302.972 26.6357 298.455 24.4629 292.4 24.4629C290.691 24.4629 288.934 24.6338 287.127 24.9756C285.369 25.3174 283.685 26.0498 282.073 27.1729C280.511 28.2471 279.07 29.834 277.752 31.9336C276.482 33.9844 275.53 36.7432 274.896 40.21ZM295.037 89.4287C293.865 90.7959 292.352 91.4795 290.496 91.4795C289.324 91.4795 288.299 91.0889 287.42 90.3076C286.541 89.4775 285.809 88.4033 285.223 87.085C284.637 85.7178 284.197 84.1553 283.904 82.3975C283.611 80.6396 283.465 78.7842 283.465 76.8311C283.465 74.292 283.733 71.8018 284.271 69.3604C284.808 66.9189 285.589 64.7705 286.614 62.915C287.64 61.0596 288.909 59.5703 290.423 58.4473C291.937 57.2754 293.67 56.6895 295.623 56.6895C297.039 56.6895 298.455 56.9336 299.871 57.4219V71.4111C299.871 73.2666 299.725 75.3662 299.432 77.71C299.139 80.0049 298.626 82.1777 297.894 84.2285C297.21 86.2793 296.258 88.0127 295.037 89.4287Z" fill="#412006"/>
</svg>
